<svg width="167" height="20" viewBox="0 0 167 20" fill="none" xmlns="http://www.w3.org/2000/svg">
<path d="M10.7096 6.4328C10.6368 5.6978 10.3244 5.1268 9.77242 4.71982C9.2204 4.31283 8.47125 4.10934 7.52494 4.10934C6.88194 4.10934 6.33903 4.20046 5.89621 4.38269C5.45338 4.55885 5.11368 4.80486 4.87711 5.12073C4.6466 5.4366 4.53134 5.79499 4.53134 6.1959C4.51921 6.52999 4.58897 6.82156 4.74062 7.07062C4.89834 7.31967 5.11368 7.53531 5.38666 7.71754C5.65963 7.8937 5.97506 8.0486 6.33296 8.18223C6.69086 8.3098 7.07302 8.41914 7.47945 8.51025L9.15368 8.91116C9.96653 9.09339 10.7127 9.33637 11.3921 9.64009C12.0715 9.94381 12.6599 10.3174 13.1573 10.7608C13.6547 11.2043 14.0399 11.7267 14.3129 12.328C14.5919 12.9294 14.7344 13.6188 14.7405 14.3964C14.7344 15.5383 14.4433 16.5285 13.867 17.3667C13.2968 18.1989 12.4718 18.8459 11.3921 19.3075C10.3184 19.7631 9.02326 19.9909 7.50674 19.9909C6.00236 19.9909 4.69209 19.7601 3.57594 19.2984C2.46585 18.8368 1.59841 18.1534 0.973602 17.2483C0.354864 16.3371 0.0303303 15.2103 0 13.8679H3.81252C3.85498 14.4935 4.03393 15.0159 4.34936 15.4351C4.67086 15.8481 5.09852 16.161 5.63233 16.3736C6.17221 16.5801 6.78185 16.6834 7.46125 16.6834C8.12851 16.6834 8.70782 16.5862 9.19917 16.3918C9.69659 16.1974 10.0818 15.9271 10.3548 15.5809C10.6277 15.2346 10.7642 14.8368 10.7642 14.3872C10.7642 13.9681 10.6399 13.6158 10.3912 13.3303C10.1485 13.0448 9.79061 12.8018 9.31746 12.6014C8.85037 12.4009 8.27713 12.2187 7.59773 12.0547L5.56864 11.5444C3.99753 11.1617 2.75702 10.5634 1.84711 9.74943C0.937205 8.93546 0.485284 7.83903 0.49135 6.46014C0.485284 5.3303 0.785554 4.3432 1.39216 3.49886C2.00483 2.65452 2.84498 1.99544 3.9126 1.52164C4.98023 1.04784 6.19344 0.810934 7.55224 0.810934C8.9353 0.810934 10.1424 1.04784 11.1737 1.52164C12.211 1.99544 13.0178 2.65452 13.594 3.49886C14.1703 4.3432 14.4675 5.32118 14.4857 6.4328H10.7096Z" fill="white"/>
<path d="M23.6326 20C22.2192 20 20.9969 19.6993 19.9657 19.0979C18.9405 18.4905 18.1489 17.6462 17.5908 16.5649C17.0327 15.4776 16.7537 14.2172 16.7537 12.7836C16.7537 11.3379 17.0327 10.0744 17.5908 8.99317C18.1489 7.90585 18.9405 7.0615 19.9657 6.46014C20.9969 5.8527 22.2192 5.54898 23.6326 5.54898C25.046 5.54898 26.2653 5.8527 27.2904 6.46014C28.3216 7.0615 29.1163 7.90585 29.6744 8.99317C30.2325 10.0744 30.5115 11.3379 30.5115 12.7836C30.5115 14.2172 30.2325 15.4776 29.6744 16.5649C29.1163 17.6462 28.3216 18.4905 27.2904 19.0979C26.2653 19.6993 25.046 20 23.6326 20ZM23.6508 16.9932C24.2938 16.9932 24.8306 16.8109 25.2613 16.4465C25.692 16.0759 26.0165 15.5718 26.2349 14.9339C26.4594 14.2961 26.5716 13.5702 26.5716 12.7563C26.5716 11.9423 26.4594 11.2164 26.2349 10.5786C26.0165 9.94078 25.692 9.4366 25.2613 9.06606C24.8306 8.69552 24.2938 8.51025 23.6508 8.51025C23.0017 8.51025 22.4558 8.69552 22.013 9.06606C21.5762 9.4366 21.2456 9.94078 21.0212 10.5786C20.8028 11.2164 20.6936 11.9423 20.6936 12.7563C20.6936 13.5702 20.8028 14.2961 21.0212 14.9339C21.2456 15.5718 21.5762 16.0759 22.013 16.4465C22.4558 16.8109 23.0017 16.9932 23.6508 16.9932Z" fill="white"/>
<path d="M32.9591 19.7267V17.4123L39.8017 8.92939V8.82916H33.1957V5.73121H44.4695V8.25513L38.0455 16.5285V16.6287H44.7061V19.7267H32.9591Z" fill="white"/>
<path d="M51.6555 19.9909C50.7638 19.9909 49.9691 19.836 49.2715 19.5262C48.5739 19.2103 48.0219 18.7456 47.6155 18.1321C47.2151 17.5125 47.015 16.7411 47.015 15.8178C47.015 15.0402 47.1575 14.3872 47.4426 13.8588C47.7277 13.3303 48.1159 12.9051 48.6073 12.5831C49.0986 12.2612 49.6567 12.0182 50.2815 11.8542C50.9124 11.6902 51.5736 11.5748 52.2651 11.508C53.078 11.4229 53.7331 11.344 54.2305 11.2711C54.7279 11.1921 55.0889 11.0767 55.3133 10.9248C55.5378 10.773 55.65 10.5482 55.65 10.2506V10.1959C55.65 9.61883 55.468 9.17236 55.104 8.85649C54.7461 8.54062 54.2366 8.38269 53.5754 8.38269C52.8778 8.38269 52.3228 8.53759 51.9103 8.84738C51.4978 9.1511 51.2248 9.53379 51.0913 9.99544L47.5063 9.70387C47.6883 8.85346 48.0462 8.11845 48.58 7.49886C49.1138 6.8732 49.8023 6.39332 50.6455 6.05923C51.4947 5.71906 52.4774 5.54898 53.5936 5.54898C54.37 5.54898 55.1131 5.64009 55.8229 5.82232C56.5387 6.00456 57.1726 6.28702 57.7246 6.6697C58.2827 7.05239 58.7224 7.54442 59.0439 8.14579C59.3654 8.74108 59.5262 9.45482 59.5262 10.287V19.7267H55.8502V17.7859H55.741C55.5165 18.2232 55.2163 18.609 54.8402 18.9431C54.4641 19.2711 54.0121 19.5292 53.4844 19.7175C52.9567 19.8998 52.347 19.9909 51.6555 19.9909ZM52.7656 17.3121C53.3358 17.3121 53.8393 17.1997 54.276 16.9749C54.7128 16.7441 55.0555 16.4343 55.3042 16.0456C55.5529 15.6568 55.6773 15.2164 55.6773 14.7244V13.2392C55.556 13.3181 55.3891 13.391 55.1768 13.4579C54.9706 13.5186 54.737 13.5763 54.4762 13.631C54.2154 13.6796 53.9545 13.7251 53.6937 13.7677C53.4328 13.8041 53.1963 13.8375 52.984 13.8679C52.529 13.9347 52.1317 14.041 51.792 14.1868C51.4523 14.3326 51.1884 14.53 51.0004 14.779C50.8123 15.022 50.7183 15.3257 50.7183 15.6902C50.7183 16.2187 50.9094 16.6226 51.2915 16.9021C51.6798 17.1754 52.1711 17.3121 52.7656 17.3121Z" fill="white"/>
<path d="M62.5334 19.7267V5.73121H66.4097V19.7267H62.5334ZM64.4806 3.92711C63.9044 3.92711 63.41 3.73576 62.9975 3.35307C62.5911 2.96431 62.3879 2.49962 62.3879 1.959C62.3879 1.42445 62.5911 0.965832 62.9975 0.583144C63.41 0.194382 63.9044 0 64.4806 0C65.0569 0 65.5483 0.194382 65.9547 0.583144C66.3672 0.965832 66.5734 1.42445 66.5734 1.959C66.5734 2.49962 66.3672 2.96431 65.9547 3.35307C65.5483 3.73576 65.0569 3.92711 64.4806 3.92711Z" fill="white"/>
<path d="M75.5178 19.7267V1.06606H79.4577V8.76538H87.4558V1.06606H91.3866V19.7267H87.4558V12.0182H79.4577V19.7267H75.5178Z" fill="white"/>
<path d="M100.932 20C99.4939 20 98.2564 19.7084 97.2191 19.1253C96.1879 18.5361 95.3933 17.7039 94.8352 16.6287C94.2771 15.5475 93.9981 14.2688 93.9981 12.7927C93.9981 11.3531 94.2771 10.0896 94.8352 9.00228C95.3933 7.91496 96.1788 7.06758 97.1918 6.46014C98.2109 5.8527 99.406 5.54898 100.777 5.54898C101.699 5.54898 102.557 5.6978 103.352 5.99544C104.153 6.28702 104.85 6.72741 105.445 7.31663C106.045 7.90585 106.512 8.64693 106.846 9.53986C107.18 10.4267 107.346 11.4655 107.346 12.656V13.7221H95.5449V11.3166H103.698C103.698 10.7578 103.576 10.2627 103.334 9.83144C103.091 9.40015 102.754 9.06302 102.324 8.82004C101.899 8.57099 101.405 8.44647 100.841 8.44647C100.252 8.44647 99.7305 8.58315 99.2755 8.85649C98.8267 9.12377 98.4748 9.48519 98.22 9.94077C97.9653 10.3903 97.8348 10.8914 97.8288 11.4442V13.7312C97.8288 14.4237 97.9562 15.022 98.2109 15.5262C98.4718 16.0304 98.8388 16.4191 99.3119 16.6925C99.7851 16.9658 100.346 17.1025 100.995 17.1025C101.426 17.1025 101.82 17.0418 102.178 16.9203C102.536 16.7988 102.842 16.6166 103.097 16.3736C103.352 16.1306 103.546 15.833 103.679 15.4806L107.265 15.7175C107.083 16.5801 106.709 17.3333 106.145 17.9772C105.587 18.615 104.865 19.1131 103.98 19.4715C103.1 19.8238 102.084 20 100.932 20Z" fill="white"/>
<path d="M113.861 19.9909C112.97 19.9909 112.175 19.836 111.477 19.5262C110.78 19.2103 110.228 18.7456 109.821 18.1321C109.421 17.5125 109.221 16.7411 109.221 15.8178C109.221 15.0402 109.363 14.3872 109.648 13.8588C109.934 13.3303 110.322 12.9051 110.813 12.5831C111.305 12.2612 111.863 12.0182 112.487 11.8542C113.118 11.6902 113.779 11.5748 114.471 11.508C115.284 11.4229 115.939 11.344 116.436 11.2711C116.934 11.1921 117.295 11.0767 117.519 10.9248C117.744 10.773 117.856 10.5482 117.856 10.2506V10.1959C117.856 9.61883 117.674 9.17236 117.31 8.85649C116.952 8.54062 116.442 8.38269 115.781 8.38269C115.084 8.38269 114.529 8.53759 114.116 8.84738C113.704 9.1511 113.431 9.53379 113.297 9.99544L109.712 9.70387C109.894 8.85346 110.252 8.11845 110.786 7.49886C111.32 6.8732 112.008 6.39332 112.851 6.05923C113.701 5.71906 114.683 5.54898 115.799 5.54898C116.576 5.54898 117.319 5.64009 118.029 5.82232C118.745 6.00456 119.378 6.28702 119.93 6.6697C120.489 7.05239 120.928 7.54442 121.25 8.14579C121.571 8.74108 121.732 9.45482 121.732 10.287V19.7267H118.056V17.7859H117.947C117.722 18.2232 117.422 18.609 117.046 18.9431C116.67 19.2711 116.218 19.5292 115.69 19.7175C115.163 19.8998 114.553 19.9909 113.861 19.9909ZM114.971 17.3121C115.542 17.3121 116.045 17.1997 116.482 16.9749C116.919 16.7441 117.261 16.4343 117.51 16.0456C117.759 15.6568 117.883 15.2164 117.883 14.7244V13.2392C117.762 13.3181 117.595 13.391 117.383 13.4579C117.176 13.5186 116.943 13.5763 116.682 13.631C116.421 13.6796 116.16 13.7251 115.9 13.7677C115.639 13.8041 115.402 13.8375 115.19 13.8679C114.735 13.9347 114.338 14.041 113.998 14.1868C113.658 14.3326 113.394 14.53 113.206 14.779C113.018 15.022 112.924 15.3257 112.924 15.6902C112.924 16.2187 113.115 16.6226 113.497 16.9021C113.886 17.1754 114.377 17.3121 114.971 17.3121Z" fill="white"/>
<path d="M137.269 5.73121L132.383 19.7267H128.015L123.129 5.73121H127.223L130.126 15.7449H130.272L133.165 5.73121H137.269Z" fill="white"/>
<path d="M145.171 20C143.734 20 142.496 19.7084 141.459 19.1253C140.428 18.5361 139.633 17.7039 139.075 16.6287C138.517 15.5475 138.238 14.2688 138.238 12.7927C138.238 11.3531 138.517 10.0896 139.075 9.00228C139.633 7.91496 140.419 7.06758 141.432 6.46014C142.451 5.8527 143.646 5.54898 145.017 5.54898C145.939 5.54898 146.797 5.6978 147.592 5.99544C148.392 6.28702 149.09 6.72741 149.684 7.31663C150.285 7.90585 150.752 8.64693 151.086 9.53986C151.419 10.4267 151.586 11.4655 151.586 12.656V13.7221H139.785V11.3166H147.937C147.937 10.7578 147.816 10.2627 147.573 9.83144C147.331 9.40015 146.994 9.06302 146.563 8.82004C146.139 8.57099 145.644 8.44647 145.08 8.44647C144.492 8.44647 143.97 8.58315 143.515 8.85649C143.066 9.12377 142.715 9.48519 142.46 9.94077C142.205 10.3903 142.075 10.8914 142.069 11.4442V13.7312C142.069 14.4237 142.196 15.022 142.451 15.5262C142.712 16.0304 143.079 16.4191 143.552 16.6925C144.025 16.9658 144.586 17.1025 145.235 17.1025C145.666 17.1025 146.06 17.0418 146.418 16.9203C146.776 16.7988 147.082 16.6166 147.337 16.3736C147.592 16.1306 147.786 15.833 147.919 15.4806L151.504 15.7175C151.322 16.5801 150.949 17.3333 150.385 17.9772C149.827 18.615 149.105 19.1131 148.219 19.4715C147.34 19.8238 146.324 20 145.171 20Z" fill="white"/>
<path d="M157.992 11.6355V19.7267H154.116V5.73121H157.81V8.20046H157.974C158.283 7.38648 158.802 6.7426 159.53 6.26879C160.258 5.78891 161.14 5.54898 162.177 5.54898C163.148 5.54898 163.994 5.76158 164.716 6.18679C165.438 6.612 165.999 7.21944 166.399 8.00911C166.8 8.79271 167 9.72817 167 10.8155V19.7267H163.124V11.508C163.13 10.6515 162.911 9.9833 162.469 9.50342C162.026 9.01746 161.416 8.77449 160.64 8.77449C160.118 8.77449 159.657 8.88686 159.257 9.11162C158.862 9.33637 158.553 9.66439 158.329 10.0957C158.11 10.5209 157.998 11.0342 157.992 11.6355Z" fill="white"/>
</svg>
