<svg xmlns="http://www.w3.org/2000/svg" viewBox="0 0 425.2 85.18"><path fill="#13202f" d="M67,5.05A17.24,17.24,0,0,0,37.61,16.57V32.93a1.54,1.54,0,0,0,1.54,1.54H54.08c5.25,0,9.4-1.47,13-5A17.27,17.27,0,0,0,67,5.05Z"/><path fill="#f03748" d="M5.05,18.2A17.24,17.24,0,0,0,16.57,47.63H32.93a1.54,1.54,0,0,0,1.54-1.54V31.15c0-5.25-1.47-9.39-5-12.95A17.27,17.27,0,0,0,5.05,18.2Z"/><path fill="#f03748" d="M18.2,80.13A17.24,17.24,0,0,0,47.62,68.6V52.25a1.54,1.54,0,0,0-1.54-1.54H31.15c-5.25,0-9.4,1.47-12.95,5A17.26,17.26,0,0,0,18.2,80.13Z"/><path fill="#f03748" d="M80.13,67A17.24,17.24,0,0,0,68.6,37.57H52.24A1.53,1.53,0,0,0,50.7,39.1V54c0,5.25,1.47,9.4,5,12.95A17.29,17.29,0,0,0,80.13,67Z"/><path fill="#13202f" d="M261.24,57.82c-2,1.2-4.41,2.7-7.28,2.7s-5.27-1.55-5.26-5.78l0-12.47H261.2l-2.82-8.38h-9.66V25.29H239.8V33.9h-6.31v8.37h6.31l0,13.18c0,8.77,4.28,13.53,12.67,13.55a22.08,22.08,0,0,0,11.36-3.54Z"/><path fill="#13202f" d="M305.58,58.32l7.31-24.42h9.54L310.9,68.42H300.49L293,45.5l-7.48,22.92H275.19L263.62,33.9h9.68l7.39,24.26,7.64-24.26h9.6Z"/><path fill="#13202f" d="M401.17,45.92h3.24l9.56-12h11.18L411.77,49.82l13.43,18.6H414L404.25,54h-3.08V68.42H392V16.64h9.14Z"/><path fill="#13202f" d="M172.31,33.31c-3.7,0-7.3,1.17-9.72,4.52V16.66h-8.91V68.42h8.91v-20a6.85,6.85,0,0,1,7.16-6.58c4.16,0,6.6,2.71,6.59,7.6v19h9.09l0-21.9C185.48,38.68,180,33.32,172.31,33.31Z"/><path fill="#13202f" d="M218.53,33.9V36a17.85,17.85,0,1,0,0,30.38v2.07h8.91V33.9Zm-9.34,26.59a9.34,9.34,0,1,1,9.34-9.33A9.33,9.33,0,0,1,209.19,60.49Z"/><path fill="#13202f" d="M386,34a15.7,15.7,0,0,0-3.38-.36c-4.15,0-7.27,1.42-9.41,4.6V33.9h-9V68.42h9V50c0-5,3-7.61,7.27-7.61a14.68,14.68,0,0,1,5.52,1.1h0Z"/><path fill="#13202f" d="M340.28,33.2A17.85,17.85,0,1,0,358.13,51,17.85,17.85,0,0,0,340.28,33.2Zm0,27.18A9.34,9.34,0,1,1,349.61,51,9.34,9.34,0,0,1,340.28,60.38Z"/><path fill="#13202f" d="M140.91,53.29a17,17,0,1,1-.1-21.63L147.72,26a25.89,25.89,0,1,0,0,33Z"/></svg>