<svg width="364" height="444" viewBox="0 0 364 444" fill="none" xmlns="http://www.w3.org/2000/svg">
<g clip-path="url(#clip0_3160_25741)">
<path d="M107.814 49.8522C108.259 49.4411 108.782 49.1223 109.352 48.914C109.921 48.7058 110.526 48.6123 111.132 48.6389C111.902 48.6143 112.664 48.7988 113.337 49.1728C114.01 49.5469 114.569 50.0965 114.955 50.763C116.255 53.0161 116.194 57.1651 115.327 59.7373C114.626 62.2787 113.214 64.5673 111.257 66.3346C110.665 66.8341 109.964 67.1872 109.21 67.3653C108.456 67.5435 107.671 67.5416 106.918 67.36C105.552 71.8155 103.26 75.9325 100.192 79.4414C97.5215 82.6111 94.186 85.1545 90.4219 86.8909C86.6578 88.6273 82.5574 89.5142 78.4119 89.4886C76.1399 89.3582 73.881 89.0569 71.6544 88.5872C65.7241 87.4298 60.373 84.2678 56.4999 79.6324C53.4666 76.0589 51.2274 71.8821 49.9304 67.3786C49.1867 67.5447 48.4146 67.5369 47.6743 67.3558C46.9341 67.1748 46.2457 66.8253 45.6627 66.3346C43.7056 64.5673 42.2936 62.2787 41.5923 59.7373C40.7204 57.1682 40.6625 53.0161 41.9653 50.763C42.3506 50.0965 42.9096 49.5469 43.5828 49.1728C44.2559 48.7988 45.0179 48.6143 45.7877 48.6389C46.3934 48.6124 46.9983 48.7059 47.5677 48.9142C48.137 49.1224 48.6595 49.4412 49.105 49.8522C49.105 49.8522 42.7422 29.2363 79.2445 29.2363C115.747 29.2363 107.814 49.8522 107.814 49.8522Z" fill="white"/>
<path d="M104.611 43.0682C104.87 43.9765 105.043 44.9072 105.127 45.8479C105.311 48.0752 105.263 49.8554 105.302 52.2635C106.128 51.4684 107.813 49.8523 107.813 49.8523C108.259 49.4413 108.781 49.1224 109.351 48.9142C109.92 48.7059 110.526 48.6124 111.131 48.639C112.308 48.6244 113.442 49.0729 114.291 49.8875C116.418 42.6884 116.457 35.0335 114.401 27.8135C112.526 21.0519 108.603 15.0359 103.171 10.5908C96.8014 5.54033 88.891 2.56334 78.8875 2.11932C70.1754 1.73209 61.0955 4.92077 55.8567 11.8093C45.9059 17.058 42.9326 22.7734 42.3231 37.2298C42.1803 41.2347 42.6683 45.237 43.7694 49.0903C44.405 48.8044 45.0922 48.6508 45.7892 48.639C46.8416 48.572 47.8827 48.8883 48.7197 49.5294C49.5568 50.1705 50.1331 51.093 50.342 52.1261C50.6772 49.3664 51.6808 46.7301 53.2657 44.4456C56.4395 39.7788 61.2886 36.5119 66.8075 35.3226L67.915 32.0266C72.0474 30.6336 93.7124 37.7265 101.727 40.1758L103.83 40.877C104.07 41.4085 104.277 41.9544 104.449 42.5116C104.504 42.6975 104.558 42.8823 104.611 43.0682Z" fill="#85807F"/>
<path d="M66.1381 113.749C59.8001 94.7809 54.0096 75.7314 56.052 79.1049C56.1987 79.2819 56.3478 79.4581 56.4993 79.6336C60.3735 84.2698 65.7262 87.4318 71.658 88.5883C73.8846 89.0581 76.1435 89.3594 78.4154 89.4898C82.5607 89.5154 86.6609 88.6286 90.4248 86.8923C94.1887 85.1561 97.524 82.613 100.194 79.4436C101.026 78.4835 101.805 77.4787 102.528 76.4336C101.56 80.1282 100.944 82.4877 100.944 82.4877C97.599 95.3003 83.834 136.962 79.3328 146.441H78.0766C75.7077 141.467 70.7757 127.63 66.1381 113.749Z" fill="white"/>
<path d="M77.1928 144.453C75.7031 140.942 73.6256 135.372 71.3434 128.915L71.4106 128.316C72.9737 117.315 74.6266 105.823 74.6132 105.214C74.5936 104.039 71.7949 97.7792 71.2598 96.6588C72.6586 94.7268 74.2754 92.5573 75.5275 91.1489L76.5771 89.3594C77.1825 89.4282 77.7948 89.4716 78.414 89.4895C79.1692 89.4688 79.9429 89.441 80.7271 89.3862L81.6155 90.7792C82.817 92.1309 84.2964 94.0949 85.6312 95.9288C85.1301 97.8463 83.097 104.468 83.097 105.102C83.097 105.472 84.7251 118.01 85.9535 128.542L86.001 129.059C83.2519 136.859 80.8045 143.355 79.3396 146.441H78.0782C77.8137 145.884 77.5172 145.218 77.1928 144.453Z" fill="#3E92A3"/>
<path d="M315.508 104.736C312.532 116.25 300.285 153.689 296.283 162.207H295.166C291.156 153.689 278.888 116.251 275.906 104.738L315.508 104.736Z" fill="white"/>
<path d="M292.379 394.307C286.34 395.738 280.089 396.043 273.939 395.207C273.983 396.642 274.021 398.066 274.053 399.48C273.939 402.31 272.987 405.043 271.319 407.333C269.312 410.27 267.04 413.015 264.53 415.536C264.398 416.807 264.267 418.073 264.267 418.073C263.889 421.711 266.534 423.897 269.51 424.98C271.109 425.532 272.816 425.704 274.493 425.481C276.171 425.258 277.774 424.647 279.173 423.696C284.014 420.433 288.546 416.735 292.713 412.647C292.713 412.647 293.229 411.994 293.703 411.267H297.387L298.69 412.647C302.857 416.735 307.389 420.433 312.23 423.696C313.63 424.647 315.232 425.258 316.91 425.481C318.588 425.704 320.294 425.532 321.894 424.98C324.869 423.897 327.515 421.711 327.138 418.073C327.138 418.073 327.007 416.807 326.874 415.536C324.364 413.016 322.092 410.27 320.086 407.333C318.417 405.043 317.465 402.31 317.35 399.48C317.385 397.976 317.427 396.458 317.475 394.927C310.749 396.092 303.856 395.881 297.214 394.308L292.379 394.307Z" fill="white"/>
<path d="M307.472 431.57C304.638 429.595 302.132 427.86 301.329 427.358C296.174 424.141 296.75 419.762 296.863 416.761C296.946 414.923 297.12 413.09 297.386 411.27L298.69 412.649C302.856 416.737 307.389 420.436 312.23 423.698C313.629 424.649 315.232 425.26 316.909 425.483C318.587 425.706 320.294 425.535 321.893 424.982C324.869 423.899 327.514 421.713 327.137 418.075L326.874 415.543L327.362 416.043C330.704 419.468 334.387 422.839 337.726 426.163C339.895 428.323 341.6 431.194 341.523 434.342C341.41 435.413 341.051 436.443 340.474 437.353C339.897 438.262 339.118 439.027 338.198 439.587C336.385 440.77 334.314 441.499 332.159 441.712C327.231 442.311 322.242 441.287 317.948 438.797C317.168 438.348 311.916 434.665 307.472 431.57Z" fill="#645D5C"/>
<path d="M283.93 431.57C286.765 429.595 289.271 427.86 290.074 427.358C295.228 424.14 294.653 419.761 294.539 416.76C294.514 414.681 294.382 412.605 294.143 410.539C293.581 411.18 293.1 411.889 292.713 412.649C288.546 416.737 284.014 420.435 279.173 423.698C277.773 424.649 276.171 425.26 274.493 425.483C272.816 425.706 271.109 425.534 269.509 424.982C266.534 423.899 263.888 421.713 264.266 418.075L264.529 415.543L264.041 416.043C260.699 419.468 257.016 422.838 253.677 426.162C251.508 428.323 249.803 431.193 249.879 434.342C249.993 435.412 250.353 436.443 250.929 437.352C251.506 438.262 252.285 439.026 253.205 439.586C255.018 440.77 257.09 441.499 259.244 441.711C264.172 442.31 269.161 441.287 273.455 438.796C274.235 438.348 279.487 434.665 283.93 431.57Z" fill="#645D5C"/>
<path d="M308.515 429.787C306.655 428.491 304.803 427.177 302.91 425.926C301.384 425.102 300.151 423.826 299.378 422.273C298.903 420.883 298.732 419.407 298.876 417.945C298.934 415.896 299.101 413.851 299.378 411.819L295.925 412.73C298.178 415.107 300.578 417.341 303.11 419.419C306.332 422.077 309.825 425.229 313.751 426.77C315.692 427.529 317.79 427.797 319.86 427.553C321.93 427.308 323.907 426.557 325.618 425.367C327.143 424.33 328.292 422.828 328.892 421.084C329.476 419.264 329.137 417.394 328.944 415.542L325.417 417.003C328.517 420.174 331.746 423.198 334.916 426.296C337.133 428.464 340.804 432.162 339.109 435.625C337.353 439.218 332.349 439.916 328.815 439.822C325.144 439.739 321.565 438.653 318.467 436.683C315.097 434.472 311.827 432.096 308.52 429.792C306.333 428.268 304.266 431.847 306.434 433.358C309.74 435.663 313.011 438.039 316.382 440.249C320.176 442.633 324.557 443.917 329.038 443.958C333.852 444.034 339.09 442.718 342.067 438.663C344.987 434.682 343.223 429.552 340.4 426.055C338.515 423.92 336.498 421.905 334.36 420.022C332.327 418.07 330.308 416.105 328.34 414.087C327.179 412.898 324.621 413.714 324.812 415.548C325.105 416.902 325.169 418.296 325.002 419.672C324.817 420.251 324.517 420.786 324.121 421.247C323.725 421.709 323.241 422.086 322.696 422.357C321.212 423.185 319.523 423.575 317.826 423.479C316.129 423.383 314.494 422.805 313.113 421.814C307.915 418.377 303.132 414.352 298.856 409.82C297.878 408.787 295.631 409.168 295.403 410.731C295.057 413.127 294.84 415.539 294.753 417.959C294.606 419.893 294.865 421.837 295.513 423.665C296.502 425.974 298.198 427.91 300.358 429.195C302.424 430.538 304.422 431.963 306.438 433.366C308.616 434.876 310.683 431.297 308.515 429.787Z" fill="#211715"/>
<path d="M318.699 333.456C317.915 346.537 317.061 359.615 316.366 372.695C316.041 378.803 315.752 384.914 315.534 391.027C315.431 393.909 315.213 396.833 315.283 399.717C315.397 401.989 315.981 404.213 316.998 406.249C318.489 409.013 320.343 411.566 322.51 413.84C324.886 416.567 327.469 419.106 330.064 421.615C331.976 423.463 334.902 420.546 332.985 418.694C328.759 414.61 324.446 410.423 321.264 405.441C318.638 401.33 319.482 396.335 319.642 391.722C320.067 379.504 320.772 367.295 321.511 355.092C321.947 347.878 322.387 340.664 322.831 333.451C322.99 330.796 318.857 330.805 318.699 333.451V333.456Z" fill="#211715"/>
<path d="M284.972 433.351C287.01 431.933 289.041 430.502 291.116 429.14C293.427 427.757 295.191 425.62 296.108 423.088C296.633 421.219 296.81 419.27 296.631 417.338C296.527 414.878 296.481 412.432 296.135 409.989C295.877 408.163 293.17 408.081 292.359 409.496C291.978 410.183 291.54 410.836 291.049 411.449C291.553 410.841 291.022 411.434 290.933 411.517C290.711 411.723 290.502 411.947 290.284 412.159C289.191 413.219 288.05 414.224 286.894 415.218C284.214 417.543 281.397 419.706 278.458 421.693C277.113 422.693 275.517 423.3 273.847 423.444C272.177 423.588 270.501 423.264 269.005 422.509C267.889 422.003 266.997 421.105 266.499 419.985C266.008 418.651 266.454 416.898 266.594 415.545C266.785 413.715 264.236 412.887 263.068 414.085C259.531 417.708 255.767 421.098 252.22 424.705C249.121 427.855 246.516 432.794 248.493 437.2C250.531 441.743 255.747 443.539 260.361 443.892C265.315 444.245 270.259 443.084 274.537 440.561C278.143 438.392 281.525 435.758 284.976 433.353C287.146 431.845 285.08 428.262 282.892 429.788C279.815 431.93 276.755 434.098 273.653 436.202C270.89 438.1 267.708 439.299 264.38 439.696C260.595 440.126 255.79 439.772 253.081 436.742C250.498 433.857 252.894 429.906 255.147 427.624C258.7 424.02 262.462 420.627 265.994 417.003L262.467 415.543C262.275 417.394 261.935 419.26 262.52 421.085C263.165 422.932 264.413 424.508 266.065 425.558C267.869 426.732 269.941 427.433 272.089 427.595C274.236 427.758 276.39 427.377 278.351 426.487C280.336 425.498 282.202 424.285 283.913 422.873C285.616 421.597 287.285 420.276 288.92 418.911C291.512 416.743 294.229 414.562 295.932 411.59L292.155 411.098C292.436 413.084 292.407 415.111 292.492 417.113C292.657 418.653 292.564 420.21 292.216 421.719C291.598 423.443 290.369 424.88 288.762 425.76C286.776 427.061 284.836 428.439 282.893 429.796C280.72 431.294 282.783 434.876 284.972 433.351Z" fill="#211715"/>
<path d="M268.571 333.454C269.325 346.052 270.143 358.636 270.824 371.234C271.152 377.288 271.444 383.346 271.675 389.408C271.785 392.316 271.878 395.224 271.953 398.132C272.065 400.144 271.709 402.153 270.913 404.004C269.569 406.607 267.851 409 265.813 411.106C263.482 413.764 260.957 416.246 258.416 418.702C256.5 420.553 259.425 423.471 261.338 421.623C265.851 417.446 269.929 412.823 273.511 407.825C276.565 403.374 276.106 398.214 275.938 393.11C275.525 380.68 274.818 368.263 274.069 355.851C273.619 348.385 273.163 340.919 272.703 333.454C272.545 330.813 268.412 330.795 268.571 333.454Z" fill="#211715"/>
<path d="M292.602 393.663V403.983C292.602 404.53 292.819 405.056 293.207 405.443C293.594 405.83 294.12 406.048 294.668 406.048C295.216 406.048 295.741 405.83 296.129 405.443C296.516 405.056 296.734 404.53 296.734 403.983V393.663C296.734 393.115 296.516 392.59 296.129 392.203C295.741 391.815 295.216 391.598 294.668 391.598C294.12 391.598 293.594 391.815 293.207 392.203C292.819 392.59 292.602 393.115 292.602 393.663Z" fill="#211715"/>
<path d="M259.955 213.381C254.988 227.639 255.741 243.167 256.601 258.24C259.17 303.3 262.166 348.333 265.589 393.339C275.08 396.327 285.245 396.44 294.8 393.664C304.355 396.44 314.519 396.327 324.009 393.339C327.429 348.336 330.425 303.303 332.997 258.24C333.857 243.164 334.61 227.639 329.643 213.381" fill="white"/>
<path d="M259.955 213.381C254.988 227.639 255.741 243.167 256.601 258.24C259.17 303.3 262.166 348.333 265.589 393.339C275.08 396.327 285.245 396.44 294.8 393.664C304.355 396.44 314.519 396.327 324.009 393.339C327.429 348.336 330.425 303.303 332.997 258.24C333.857 243.164 334.61 227.639 329.643 213.381" fill="#7A7473"/>
<path d="M257.965 212.832C254.329 223.406 253.692 234.703 253.97 245.798C254.263 257.49 255.159 269.183 255.862 280.855C257.308 304.836 258.873 328.81 260.554 352.777C261.506 366.301 262.495 379.822 263.523 393.339C263.535 393.788 263.689 394.222 263.961 394.579C264.233 394.936 264.61 395.199 265.039 395.331C274.085 398.128 283.714 398.462 292.933 396.3C295.522 395.695 294.426 391.712 291.835 392.316C283.336 394.289 274.465 393.955 266.139 391.349L267.657 393.339C265.843 369.469 264.148 345.59 262.572 321.702C261.016 298.095 259.334 274.469 258.283 250.834C257.731 238.426 257.869 225.802 261.951 213.931C262.818 211.412 258.827 210.329 257.967 212.832H257.965Z" fill="#211715"/>
<path d="M327.644 213.931C331.277 224.494 331.791 235.681 331.467 246.758C331.126 258.387 330.255 270.013 329.555 281.625C328.119 305.435 326.564 329.238 324.89 353.033C323.945 366.472 322.961 379.907 321.941 393.339L323.458 391.348C315.133 393.954 306.261 394.288 297.763 392.315C295.18 391.712 294.072 395.693 296.665 396.299C305.884 398.462 315.512 398.127 324.559 395.331C324.988 395.199 325.366 394.936 325.638 394.579C325.91 394.222 326.063 393.788 326.075 393.339C327.896 369.382 329.596 345.418 331.177 321.445C332.742 297.687 334.477 273.904 335.481 250.115C336.007 237.603 335.745 224.793 331.632 212.832C330.774 210.333 326.777 211.407 327.648 213.931H327.644Z" fill="#211715"/>
<path d="M292.404 251.203C292.404 259.32 292.415 267.437 292.437 275.554C292.459 286.693 292.485 297.832 292.515 308.971C292.546 320.707 292.578 332.444 292.61 344.182C292.637 354.279 292.665 364.376 292.692 374.474C292.707 380.517 292.72 386.559 292.732 392.6V393.667C292.732 396.325 296.864 396.329 296.864 393.667C296.864 388.283 296.854 382.898 296.832 377.513C296.807 367.788 296.781 358.062 296.754 348.336C296.722 336.682 296.69 325.027 296.659 313.373C296.63 302.026 296.602 290.681 296.577 279.335C296.558 270.724 296.545 262.114 296.538 253.503C296.538 252.737 296.538 251.971 296.538 251.206C296.538 248.548 292.405 248.544 292.405 251.206L292.404 251.203Z" fill="#211715"/>
<path d="M253.146 219.483C253.596 215.45 254.117 211.664 254.738 205.916L255.369 200.766L255.162 200.663C255.084 200.633 255.009 200.598 254.935 200.56C249.583 197.937 244.067 194.746 239.097 191.721C235.409 189.49 231.721 184.885 230.667 181.137C229.41 176.901 229.41 172.392 230.667 168.157C234.428 154.557 243.568 129.253 244.56 127.059C246.104 123.376 248.229 119.964 250.854 116.953C252.469 115.33 254.29 113.926 256.27 112.775C261.874 109.444 271.211 105.444 275.81 104.367C278.61 115.423 291.106 153.596 295.16 162.208H296.277C300.332 153.58 312.845 115.273 315.613 104.303C320.106 105.283 329.703 109.378 335.42 112.77C337.4 113.921 339.22 115.325 340.836 116.948C343.46 119.959 345.585 123.371 347.128 127.054C348.121 129.251 357.262 154.555 361.022 168.152C362.279 172.387 362.279 176.896 361.022 181.131C359.969 184.88 356.28 189.485 352.592 191.716C347.623 194.741 342.106 197.932 336.755 200.555C336.681 200.593 336.605 200.628 336.528 200.658L336.236 200.799C336.514 203.616 336.753 206.074 336.753 206.074C337.497 213.312 338.382 218.946 338.819 224.811C338.842 225.111 338.745 225.408 338.549 225.636C338.354 225.865 338.075 226.006 337.776 226.03C331.36 226.515 319.449 227.248 313.209 226.226C308.859 225.514 305.874 224.698 303.115 222.375C300.373 220.195 298.344 217.247 297.289 213.907C296.49 210.862 295.848 207.777 295.367 204.665C295.344 204.512 295.267 204.372 295.149 204.271C295.032 204.17 294.882 204.114 294.727 204.114C294.571 204.114 294.422 204.17 294.304 204.271C294.186 204.372 294.109 204.512 294.086 204.665C293.644 207.653 293.041 210.614 292.278 213.535C291.239 217.012 289.068 220.043 286.111 222.147C283.982 223.717 279.695 225.431 274.829 226.185C267.82 227.06 260.737 227.178 253.702 226.536C253.379 226.5 253.082 226.34 252.874 226.09C252.666 225.839 252.563 225.518 252.587 225.194C252.76 223.117 252.946 221.276 253.146 219.483Z" fill="#D9D9D9"/>
<path d="M310.743 114.347C306.198 117.313 300.56 118.203 295.97 118.203C289.919 118.203 285.263 116.654 282.687 114.743C280.376 113.028 279.485 108.724 280.154 102.2L280.238 101.383L283.087 102.171C287.498 103.311 292.053 103.792 296.605 103.599C301.078 103.318 303.881 102.376 308.738 101.534C309.193 101.442 309.664 101.458 310.112 101.58C310.56 101.702 310.974 101.926 311.321 102.235C312.057 103.075 312.62 104.053 312.977 105.111C313.333 106.17 313.477 107.289 313.398 108.403C313.302 109.681 313.621 112.17 312.085 113.384C311.651 113.726 311.204 114.047 310.743 114.347Z" fill="#3E92A3"/>
<path d="M309.702 112.563C303.49 116.518 294.826 117.177 287.865 114.985C286.555 114.594 285.309 114.014 284.166 113.264C283.481 112.783 282.972 112.089 282.72 111.29C281.572 108.192 281.975 104.59 282.307 101.382L279.691 103.373C286.819 105.346 293.974 106.356 301.341 105.094C303.073 104.798 304.785 104.404 306.507 104.052C307.445 103.733 308.428 103.563 309.419 103.549C310.052 103.652 310.362 104.246 310.637 104.788C311.226 106.172 311.459 107.681 311.313 109.178C311.357 109.851 311.296 110.527 311.131 111.182C310.888 111.872 310.305 112.164 309.705 112.565C307.505 114.036 309.572 117.615 311.791 116.132C313.746 114.825 315.028 113.489 315.33 111.081C315.586 109.186 315.535 107.261 315.178 105.381C314.833 103.338 313.738 101.497 312.107 100.218C310.066 98.8616 307.611 99.6164 305.409 100.067C301.235 101.097 296.947 101.592 292.648 101.542C288.627 101.27 284.649 100.547 280.79 99.3872C280.484 99.3091 280.164 99.3014 279.854 99.3644C279.544 99.4274 279.252 99.5597 279.001 99.7513C278.749 99.9428 278.544 100.189 278.401 100.471C278.259 100.753 278.181 101.063 278.175 101.379C277.79 105.14 277.484 109.297 278.934 112.887C280.217 116.068 282.963 117.637 286.088 118.737C294.136 121.576 304.552 120.735 311.791 116.127C314.024 114.706 311.953 111.129 309.702 112.563Z" fill="#211715"/>
<path d="M98.6454 232.322C93.6865 231.507 90.2979 230.577 87.148 227.934C84.0221 225.45 81.712 222.087 80.5156 218.279C79.5997 214.809 78.8652 211.293 78.3151 207.746C78.2861 207.573 78.1964 207.417 78.0621 207.304C77.9279 207.191 77.7577 207.13 77.5823 207.131C77.4069 207.132 77.2377 207.196 77.105 207.31C76.9723 207.425 76.8849 207.583 76.8584 207.757C76.3586 211.158 75.672 214.53 74.8015 217.856C73.6205 221.817 71.1476 225.27 67.7765 227.665C65.359 229.452 60.4621 231.414 54.9247 232.271C48.9612 233.032 42.9446 233.294 36.9375 233.055C37.0914 237.034 37.3745 244.347 37.3745 244.347C39.3374 292.103 40.5213 335.77 42.1949 381.167C42.4704 388.624 42.7607 396.137 43.0658 403.705C48.4833 405.338 54.1028 406.204 59.7607 406.279C65.8001 406.221 75.3759 405.692 79.7955 404.551C84.2202 405.693 93.7743 406.225 99.8107 406.285C105.467 406.204 111.085 405.335 116.501 403.703C118.678 350.135 119.892 300.197 122.183 244.765L122.648 232.367C115.097 232.868 104.607 233.292 98.6454 232.322Z" fill="#7A7473"/>
<path d="M102.799 434.699C99.7879 432.23 96.8942 429.758 93.4933 427.245C91.8063 425.998 89.707 425.135 88.1047 423.781C87.2027 422.968 86.4661 421.988 85.9352 420.896C84.0436 417.294 84.2109 410.576 84.931 406.573C84.931 406.573 85.0054 406.16 85.1324 405.445C89.8072 405.981 95.6473 406.247 99.8127 406.289C103.192 406.269 106.562 405.94 109.88 405.305L111.734 408.215C113.077 409.722 115.586 412.734 117.04 414.137C121.379 418.317 122.935 420.3 126.09 423.795C128.513 426.48 130.635 431.87 130.027 435.652C129.554 438.57 126.748 440.167 124.011 441.291C121.399 441.913 118.696 442.051 116.034 441.699C112.634 441.154 109.413 439.804 106.64 437.761C105.31 436.739 104.044 435.719 102.799 434.699Z" fill="white"/>
<path d="M56.8691 434.483C59.8651 432.142 62.6906 429.766 67.0348 428.037C69.258 427.152 71.5856 426.821 73.2891 425.141C74.3587 423.947 75.0886 422.488 75.4028 420.916C76.404 416.307 76.4505 411.541 75.5392 406.913C75.5392 406.913 75.4183 406.325 75.2293 405.352C70.0934 405.926 64.9315 406.236 59.7638 406.281C56.0497 406.256 52.3471 405.864 48.7097 405.113L45.5071 410.203L31.3733 425.977C24.4247 433.102 26.806 440.302 34.8673 441.602C39.1279 442.207 43.4725 441.556 47.3677 439.727C49.8336 438.907 52.1854 437.778 54.3669 436.366C55.2347 435.75 56.0581 435.118 56.8691 434.483Z" fill="white"/>
<path d="M108.094 406.347C110.818 411.407 115.475 415.288 119.355 419.403C123.295 423.578 128.723 428.639 128.033 434.988C127.765 437.467 124.715 439.126 122.486 439.551C119.582 440.076 116.595 439.899 113.773 439.035C110.009 437.92 107.148 435.606 104.159 433.154C100.884 430.47 97.6798 427.621 94.1889 425.213C92.5474 424.077 90.5359 423.334 89.1195 421.908C88.0098 420.698 87.2608 419.201 86.9573 417.587C86.2705 414.134 86.2568 410.581 86.917 407.123C87.047 406.595 86.9695 406.037 86.7004 405.564C86.4314 405.092 85.9912 404.74 85.4706 404.582C84.942 404.442 84.3791 404.514 83.9036 404.785C83.4281 405.055 83.0782 405.502 82.9292 406.028C81.7184 413.007 81.6503 422.094 88.2455 426.446C90.0524 427.637 91.9296 428.624 93.6579 429.943C95.4948 431.345 97.2738 432.817 99.0579 434.288C102.41 437.059 105.716 440.21 109.752 441.952C115.967 444.637 124.628 445.302 129.846 440.137C132.67 437.342 132.532 433.266 131.482 429.697C130.394 425.991 128.322 423.234 125.806 420.394C123.229 417.486 120.485 414.781 117.8 411.979C115.421 409.69 113.354 407.097 111.655 404.266C110.395 401.924 106.826 404.008 108.087 406.351L108.094 406.347Z" fill="#211715"/>
<path d="M73.5454 407.464C74.2895 411.4 74.3046 415.439 73.5899 419.381C73.4409 420.843 72.9128 422.241 72.0578 423.437C70.9947 424.729 69.1734 425.109 67.6671 425.619C64.4796 426.733 61.488 428.343 58.8032 430.39C56.1088 432.398 53.6077 434.71 50.5611 436.19C47.1881 437.829 43.3594 439.407 39.5927 439.715C36.7982 439.943 33.3942 439.781 31.1141 437.919C25.9063 433.665 32.9975 427.387 35.8023 424.249C38.82 420.875 41.7808 417.452 44.8016 414.082C46.9308 411.662 48.7721 409.004 50.2884 406.16C51.5581 403.823 47.9908 401.735 46.7201 404.075C45.2485 406.816 43.4612 409.376 41.3945 411.703C38.4274 415.013 35.5316 418.387 32.5563 421.69C29.8703 424.676 26.771 427.415 25.6232 431.417C25.1784 432.86 25.0973 434.39 25.3869 435.871C25.6765 437.353 26.328 438.74 27.2834 439.909C29.4922 442.555 32.9758 443.562 36.2868 443.843C40.7911 444.225 44.8615 442.914 48.9877 441.309C51.0282 440.586 52.9893 439.656 54.8402 438.534C56.3609 437.549 57.7721 436.383 59.1957 435.265C61.9831 432.886 65.1515 430.995 68.568 429.67C70.6414 428.957 72.7582 428.364 74.4422 426.882C75.925 425.467 76.9422 423.634 77.3586 421.628C78.4756 416.607 78.534 411.408 77.5301 406.363C77.0187 403.757 73.0341 404.86 73.5454 407.461V407.464Z" fill="#211715"/>
<path d="M79.2391 406.545C85.0245 407.996 91.2799 408.139 97.215 408.301C103.924 408.521 110.625 407.643 117.05 405.701C117.481 405.572 117.86 405.309 118.133 404.952C118.405 404.594 118.557 404.159 118.567 403.71C119.614 377.942 120.467 352.168 121.317 326.395C122.18 300.212 123.053 274.031 124.118 247.855C124.353 242.085 124.562 236.313 124.779 230.541C124.882 227.883 120.75 227.887 120.647 230.541C119.992 247.981 119.279 265.418 118.659 282.859C117.744 308.593 116.944 334.33 116.058 360.065C115.556 374.614 115.015 389.162 114.435 403.71L115.952 401.718C109.883 403.556 103.553 404.385 97.215 404.172C91.6425 404.019 85.7735 403.925 80.3384 402.563C77.7556 401.915 76.6574 405.898 79.2391 406.545Z" fill="#211715"/>
<path d="M79.2386 402.566C73.8015 403.925 67.9314 404.017 62.3568 404.169C56.0183 404.384 49.6874 403.556 43.6175 401.718L45.1341 403.709C44.0938 378.037 43.2425 352.358 42.3943 326.677C41.5337 300.601 40.6649 274.524 39.6101 248.455C39.3684 242.484 39.1349 236.514 38.9097 230.543C38.8064 227.893 34.674 227.88 34.7773 230.543C35.455 248.085 36.1668 265.627 36.7898 283.171C37.6989 308.808 38.4975 334.45 39.3808 360.088C39.8829 374.629 40.4232 389.169 41.0017 403.708C41.0124 404.158 41.1649 404.592 41.4374 404.95C41.71 405.308 42.0886 405.57 42.5193 405.7C48.9452 407.641 55.6455 408.519 62.3548 408.298C68.292 408.136 74.5453 407.996 80.3306 406.548C82.9134 405.903 81.8173 401.919 79.2324 402.565L79.2386 402.566Z" fill="#211715"/>
<path d="M77.7207 253.385C77.7297 259.352 77.7317 265.32 77.7269 271.288C77.7269 282.727 77.7269 294.166 77.7269 305.606C77.7269 319.013 77.7269 332.421 77.7269 345.83C77.7269 357.816 77.7269 369.803 77.7269 381.789C77.7269 388.945 77.7269 396.101 77.7269 403.257V404.393C77.7269 407.051 81.8593 407.055 81.8593 404.393C81.8593 398.084 81.8593 391.775 81.8593 385.465V350.62C81.8593 337.201 81.8593 323.783 81.8593 310.366C81.8593 298.534 81.8593 286.702 81.8593 274.871C81.8593 268.036 81.8593 261.202 81.8593 254.367C81.8593 254.041 81.8593 253.716 81.8593 253.39C81.8593 250.732 77.7269 250.727 77.7269 253.39L77.7207 253.385Z" fill="#211715"/>
<path d="M30.006 226.568C30.8098 218.164 32.0268 207.553 32.844 197.855L33.2995 191.22C32.2117 190.703 31.1001 190.165 29.975 189.619C29.8877 189.586 29.8025 189.547 29.7199 189.503C23.7279 186.568 17.5531 182.998 11.9899 179.608C7.85749 177.111 3.70342 171.002 2.85008 166.728C1.87732 162.251 1.86253 157.619 2.80669 153.135C3.38522 150.566 4.15591 148.214 4.85325 145.675C6.89568 138.248 9.0125 131.787 11.7171 124.653C14.4641 117.394 17.6492 109.136 22.0677 102.681C25.7249 97.3448 30.3738 94.8108 35.8492 91.5199C41.6692 88.1896 47.8134 85.4605 54.1867 83.3747L56.4078 82.5879C59.8171 95.5254 73.5707 136.985 78.0739 146.44H79.3302C83.7952 137.038 97.3732 95.9745 100.858 82.8047C107.868 85.2572 114.503 87.7323 120.806 91.5189C126.281 94.8098 130.936 97.3438 134.589 102.68C139.008 109.135 142.188 117.393 144.94 124.649C147.645 131.783 149.76 138.244 151.803 145.671C152.501 148.21 153.272 150.562 153.85 153.131C154.795 157.616 154.78 162.249 153.807 166.727C152.954 171.001 148.796 177.11 144.666 179.607C139.104 182.994 132.927 186.567 126.936 189.502C126.854 189.546 126.769 189.585 126.682 189.618C125.787 190.052 124.903 190.477 124.032 190.894C124.42 194.685 124.755 197.993 124.755 197.993C124.921 200.079 124.41 194.425 125.479 205.325C126.491 215.052 127.255 223.127 127.824 230.696C127.849 231.038 127.739 231.376 127.516 231.637C127.294 231.898 126.977 232.061 126.636 232.09C119.321 232.648 105.757 233.474 98.6491 232.317C93.6902 231.501 90.3017 230.572 87.1507 227.929C84.0251 225.444 81.7151 222.082 80.5182 218.274C79.6029 214.803 78.8684 211.288 78.3177 207.741C78.2888 207.568 78.1991 207.411 78.0648 207.299C77.9305 207.186 77.7604 207.124 77.585 207.126C77.4096 207.127 77.2404 207.191 77.1077 207.305C76.975 207.42 76.8876 207.578 76.8611 207.752C76.361 211.153 75.6747 214.524 74.8052 217.85C73.6245 221.812 71.1515 225.266 67.7802 227.66C65.3627 229.447 60.4658 231.408 54.9284 232.266C46.942 233.259 38.8719 233.39 30.8573 232.658C30.4891 232.623 30.1498 232.443 29.9137 232.159C29.6775 231.875 29.5636 231.508 29.5969 231.14C29.7126 229.715 29.8573 228.182 30.006 226.568Z" fill="#D9D9D9"/>
<path d="M74.0731 89.6877C71.3933 92.7142 69.2 96.1301 66.7826 99.3601C66.5074 99.8332 66.4308 100.396 66.5696 100.925C66.7084 101.455 67.0513 101.908 67.5233 102.185C68.0001 102.446 68.5586 102.514 69.0843 102.377C69.61 102.239 70.0631 101.906 70.3509 101.445C71.384 100.067 72.3572 98.6496 73.3696 97.2598C73.6843 96.8268 74.0015 96.3955 74.3211 95.9659C74.4946 95.7336 74.6682 95.5002 74.8438 95.2689C75.0407 95.0591 75.2155 94.8297 75.3655 94.5843L75.2013 94.797L75.3593 94.5905L75.5949 94.291C75.7478 94.0976 75.9017 93.9055 76.0567 93.7148C76.3666 93.339 76.6765 92.9683 76.9947 92.6058C77.1966 92.4164 77.3582 92.1883 77.4702 91.9352C77.5821 91.6821 77.642 91.4091 77.6463 91.1324C77.6506 90.8557 77.5992 90.581 77.4952 90.3245C77.3912 90.0681 77.2367 89.8351 77.0408 89.6395C76.845 89.4439 76.6118 89.2896 76.3552 89.1859C76.0985 89.0821 75.8236 89.0309 75.5468 89.0354C75.27 89.0399 74.9969 89.1 74.7437 89.212C74.4906 89.3241 74.2625 89.4858 74.0731 89.6877Z" fill="#211715"/>
<path d="M90.5793 99.2885C88.0875 95.9594 85.8322 92.4382 83.0697 89.3188C82.6808 88.9343 82.1559 88.7188 81.6089 88.7188C81.062 88.7188 80.5371 88.9343 80.1481 89.3188C79.7723 89.712 79.5625 90.235 79.5625 90.7789C79.5625 91.3227 79.7723 91.8457 80.1481 92.239C80.478 92.6121 80.799 92.9907 81.111 93.3748C81.2763 93.5762 81.4385 93.7796 81.5996 93.983C81.6833 94.0863 81.7659 94.1895 81.8486 94.3C82.1368 94.6687 81.7453 94.1617 81.86 94.3124C82.5556 95.2197 83.2385 96.136 83.9086 97.0612C84.9489 98.4934 85.95 99.9525 87.0079 101.37C87.2941 101.823 87.7315 102.159 88.2424 102.32C88.78 102.463 89.3522 102.389 89.8355 102.114C90.3041 101.833 90.6442 101.38 90.7827 100.852C90.9212 100.324 90.847 99.7627 90.5762 99.2885H90.5793Z" fill="#211715"/>
<path d="M68.1787 143.651C63.8759 136.195 59.6102 128.717 55.451 121.181C53.3848 117.438 51.3496 113.679 49.3454 109.903C48.3887 108.095 47.4414 106.282 46.5033 104.464C46.3607 104.189 46.2189 103.914 46.0777 103.638C45.9172 103.15 45.8421 103.079 45.8525 103.426C45.6458 103.874 46.6149 102.806 46.7099 102.703C47.4682 101.913 48.2451 101.143 49.0292 100.378C50.9363 98.5197 48.0137 95.6006 46.1066 97.4582C44.6324 98.8946 42.2325 100.646 41.8244 102.774C41.4432 104.767 43.1416 106.953 44.0136 108.627C46.1961 112.818 48.4273 116.983 50.707 121.121C55.2361 129.382 59.9015 137.568 64.6104 145.727C65.939 148.03 69.5114 145.952 68.1787 143.643V143.651Z" fill="#211715"/>
<path d="M122.691 197.994C122.715 198.165 122.727 198.337 122.728 198.51L126.255 197.05L126.787 197.962C126.968 198.858 126.843 198.559 126.842 198.322L123.315 199.782L122.784 198.872C122.589 197.777 122.751 198.689 122.784 198.968C122.877 199.859 122.965 200.752 123.053 201.644C123.426 205.404 123.815 209.161 124.189 212.921C124.545 216.533 124.882 220.147 125.199 223.763C125.342 225.407 125.478 227.052 125.608 228.697C125.64 229.099 125.671 229.501 125.702 229.902L125.732 230.303C125.684 230.961 125.894 230.877 126.363 230.051C126.122 229.854 124.606 230.18 124.271 230.203C118.223 230.625 112.147 230.943 106.088 230.817C100.633 230.702 94.3316 230.343 89.662 227.24C87.15 225.534 85.0965 223.236 83.6825 220.549C82.4879 217.928 81.6709 215.151 81.2557 212.3C80.9189 210.636 80.7877 208.827 80.3259 207.197C80.2166 206.783 80.0146 206.398 79.7353 206.072C79.456 205.746 79.1066 205.488 78.7132 205.317C78.3197 205.145 77.8926 205.065 77.4637 205.082C77.0349 205.099 76.6155 205.213 76.2369 205.415C74.5943 206.317 74.6873 208.526 74.3929 210.134C74.0674 211.945 73.7131 213.748 73.2905 215.544C72.718 218.267 71.4947 220.811 69.725 222.959C67.9554 225.107 65.6919 226.795 63.128 227.879C57.1019 230.439 50.4674 230.887 44.0023 231.029C40.342 231.109 36.6673 231.055 33.0194 230.786C32.6547 230.759 32.289 230.73 31.9243 230.698C31.6888 230.678 31.4536 230.656 31.2187 230.633C31.3312 230.676 31.4317 230.746 31.5119 230.835C31.592 230.925 31.6495 231.033 31.6795 231.15C31.83 230.309 31.9043 229.456 31.9016 228.601C32.071 226.731 32.2549 224.863 32.443 222.995C33.287 214.618 34.2168 206.249 34.9286 197.86C35.1538 195.211 31.0194 195.226 30.7962 197.86C30.1567 205.39 29.3447 212.906 28.5719 220.424C28.2424 223.641 27.9159 226.858 27.637 230.081C27.4934 231.745 27.6825 233.288 29.2331 234.252C30.541 235.064 32.6599 234.906 34.1538 234.996C40.5426 235.426 46.957 235.28 53.3198 234.561C59.6785 233.794 66.3636 232.016 71.1624 227.55C73.7187 225.138 75.6223 222.119 76.6956 218.773C77.1366 217.336 77.4947 215.875 77.768 214.398C77.9849 213.345 78.1881 212.291 78.3775 211.234C78.4261 210.261 78.5948 209.298 78.8796 208.366L78.1378 209.108L76.7948 208.963L76.2628 208.051C76.7723 210.093 77.1689 212.162 77.4508 214.247C77.7607 215.72 78.0707 217.206 78.4932 218.652C79.5449 222.137 81.452 225.304 84.0409 227.864C86.5404 230.409 89.6574 232.264 93.0878 233.247C96.2997 234.128 99.5983 234.656 102.925 234.82C109.834 235.11 116.754 234.961 123.644 234.373C125.056 234.277 126.932 234.435 128.189 233.722C130.2 232.577 129.898 230.455 129.739 228.491C129.425 224.523 129.076 220.558 128.693 216.595C128.233 211.774 127.726 206.958 127.247 202.139C127.103 200.686 127.281 198.061 126.253 196.858C125.06 195.462 122.721 196.621 122.726 198.319C122.707 198.623 122.753 198.927 122.86 199.211C122.967 199.496 123.132 199.755 123.346 199.971C123.64 200.246 124.007 200.43 124.404 200.502C124.8 200.574 125.208 200.531 125.58 200.377C125.953 200.223 126.272 199.965 126.502 199.634C126.731 199.303 126.86 198.913 126.874 198.511C126.873 198.338 126.861 198.166 126.837 197.995C126.63 195.363 122.498 195.34 122.705 197.995L122.691 197.994Z" fill="#211715"/>
<path d="M83.3036 101.794C80.382 101.794 77.4604 101.733 74.5388 101.732C73.9909 101.732 73.4653 101.95 73.0778 102.337C72.6903 102.725 72.4727 103.25 72.4727 103.798C72.4727 104.345 72.6903 104.871 73.0778 105.258C73.4653 105.645 73.9909 105.863 74.5388 105.863C77.4604 105.863 80.382 105.924 83.3036 105.925C83.8516 105.925 84.3772 105.707 84.7646 105.32C85.1521 104.933 85.3698 104.407 85.3698 103.86C85.3698 103.312 85.1521 102.787 84.7646 102.399C84.3772 102.012 83.8516 101.794 83.3036 101.794Z" fill="#211715"/>
<path d="M88.0108 128.548C87.175 121.398 86.2659 114.256 85.3919 107.11C85.4187 106.466 85.3426 105.822 85.1667 105.202C85.0975 105.099 84.99 105.801 85.1667 105.169C85.2927 104.724 85.3919 104.27 85.5138 103.827C86.1843 101.37 86.9601 98.9427 87.6131 96.482C88.3001 93.9109 84.3144 92.8142 83.6284 95.3844C82.9724 97.844 82.1996 100.273 81.5292 102.729C81.1294 104.084 81.0275 105.509 81.2306 106.907C82.1108 114.123 83.0313 121.334 83.8753 128.553C83.8912 129.095 84.1139 129.611 84.498 129.995C84.8821 130.379 85.3985 130.602 85.9415 130.618C86.4885 130.615 87.0121 130.396 87.3989 130.009C87.7857 129.623 88.0044 129.099 88.0077 128.553L88.0108 128.548Z" fill="#211715"/>
<path d="M98.9528 81.9392C96.7998 90.1587 94.1272 98.2543 91.4969 106.335C88.3284 116.071 85.0648 125.783 81.5296 135.393C80.7775 137.436 80.012 139.475 79.2082 141.499C78.5223 143.227 78.3074 143.794 77.5501 145.398L79.3343 144.375H78.078L79.8622 145.399C79.6215 144.89 79.3931 144.375 79.1679 143.859C79.1028 143.71 79.0398 143.562 78.9768 143.413C79.1752 143.881 78.9469 143.341 78.919 143.274C78.7547 142.873 78.5894 142.472 78.4272 142.071C77.733 140.349 77.0708 138.615 76.4199 136.876C74.7463 132.403 73.1553 127.9 71.5943 123.388C68.2037 113.589 64.9636 103.74 61.8739 93.8389C60.6435 89.8861 59.4275 85.9261 58.3707 81.9248C57.695 79.3557 53.7073 80.4451 54.386 83.0224C56.5648 91.308 59.2715 99.4707 61.9328 107.61C65.1426 117.427 68.4413 127.22 72.0334 136.906C73.3516 140.462 74.6647 144.052 76.2897 147.483C76.4696 147.796 76.7297 148.056 77.0432 148.235C77.3568 148.415 77.7125 148.508 78.0739 148.505H79.3301C79.6916 148.508 80.0474 148.415 80.3609 148.235C80.6745 148.055 80.9345 147.795 81.1143 147.482C84.5235 140.253 86.9978 132.509 89.6022 124.971C93.0342 115.037 96.3104 105.049 99.4311 95.0078C100.658 91.0375 101.881 87.0568 102.933 83.039C103.608 80.4657 99.6274 79.367 98.9486 81.9413L98.9528 81.9392Z" fill="#211715"/>
<path d="M108.332 118.18C109.809 115.508 111.256 112.818 112.671 110.11C113.68 108.174 114.769 106.252 115.676 104.266C115.966 103.704 116.108 103.078 116.09 102.446C116.072 101.814 115.894 101.197 115.573 100.652C114.843 99.6283 113.994 98.6945 113.044 97.87C111.17 95.9783 108.248 98.9026 110.123 100.791C110.824 101.422 111.475 102.107 112.07 102.839C112.07 102.833 111.984 102.431 111.99 102.433C111.997 102.435 111.813 102.772 111.763 102.87C111.511 103.361 111.259 103.853 111.006 104.344C110.186 105.937 109.36 107.528 108.526 109.115C107.298 111.456 106.044 113.781 104.766 116.09C103.479 118.419 107.046 120.505 108.334 118.175L108.332 118.18Z" fill="#211715"/>
<path d="M92.8009 145.735C95.6453 140.808 98.4553 135.863 101.231 130.897C101.508 130.424 101.585 129.861 101.446 129.331C101.307 128.801 100.963 128.348 100.49 128.071C100.016 127.795 99.4528 127.718 98.9226 127.857C98.3924 127.996 97.9392 128.339 97.6626 128.812C94.8967 133.783 92.087 138.729 89.2336 143.651C89.0913 143.885 88.997 144.145 88.9564 144.416C88.9158 144.688 88.9295 144.964 88.9969 145.23C89.0642 145.495 89.1839 145.745 89.3487 145.964C89.5136 146.183 89.7205 146.367 89.9573 146.505C90.194 146.644 90.456 146.734 90.7278 146.77C90.9997 146.806 91.276 146.787 91.5407 146.716C91.8054 146.644 92.0531 146.52 92.2695 146.352C92.4858 146.183 92.6665 145.973 92.8009 145.735Z" fill="#211715"/>
<path d="M31.0654 116.646C31.9715 128.806 32.7928 140.98 33.018 153.175C33.0676 155.829 37.2 155.838 37.1504 153.175C36.9252 140.98 36.1038 128.805 35.1978 116.646C35.0015 114.011 30.8681 113.99 31.0654 116.646Z" fill="#211715"/>
<path d="M124.349 156.244C124.478 143.026 125.37 129.832 126.343 116.654C126.539 114.002 122.406 114.015 122.211 116.654C121.238 129.832 120.346 143.026 120.217 156.244C120.191 158.903 124.323 158.905 124.349 156.244Z" fill="#211715"/>
<path d="M115.438 116.127H101.016C100.746 116.127 100.488 116.234 100.298 116.424C100.107 116.614 100 116.872 100 117.141V121.532C99.9996 121.665 100.025 121.796 100.076 121.92C100.127 122.043 100.201 122.154 100.295 122.249C100.389 122.343 100.501 122.418 100.624 122.469C100.746 122.52 100.878 122.547 101.011 122.547H115.434C115.704 122.547 115.962 122.44 116.153 122.249C116.343 122.059 116.45 121.801 116.45 121.532V117.141C116.45 117.008 116.424 116.876 116.374 116.753C116.323 116.63 116.248 116.518 116.154 116.424C116.06 116.33 115.948 116.255 115.825 116.204C115.703 116.153 115.571 116.127 115.438 116.127Z" fill="#78B3BF"/>
<path d="M115.437 114.061H103.289C102.042 114.061 100.513 113.823 99.4041 114.516C98.9532 114.806 98.5822 115.204 98.3252 115.674C98.0682 116.145 97.9333 116.672 97.933 117.207C97.8948 118.298 97.933 119.397 97.933 120.487C97.933 120.824 97.9185 121.164 97.933 121.501C97.9374 122.154 98.1453 122.79 98.5278 123.32C98.9103 123.85 99.4484 124.247 100.067 124.457C100.834 124.626 101.621 124.678 102.403 124.611H112.194C113.33 124.611 114.501 124.687 115.634 124.591C116.409 124.53 117.133 124.183 117.665 123.617C118.197 123.051 118.499 122.307 118.511 121.531C118.557 120.467 118.511 119.391 118.511 118.33C118.511 117.935 118.528 117.538 118.511 117.143C118.49 116.334 118.159 115.563 117.586 114.99C117.013 114.418 116.243 114.086 115.433 114.064C114.886 114.068 114.362 114.287 113.976 114.673C113.589 115.06 113.37 115.583 113.366 116.129C113.378 116.673 113.6 117.192 113.985 117.577C114.37 117.961 114.888 118.183 115.433 118.195C114.869 118.138 114.319 117.479 114.379 117.211C114.366 117.333 114.366 117.457 114.379 117.58V120.348C114.329 120.711 114.329 121.079 114.379 121.442C114.476 121.726 114.624 120.873 114.689 120.792L115.432 120.482H101.346C101.235 120.467 101.123 120.467 101.012 120.482L101.758 120.792L102.067 121.534C102.072 121.474 102.072 121.414 102.067 121.354C102.098 120.97 102.098 120.585 102.067 120.201C102.067 119.278 102.143 118.32 102.067 117.398C102.077 117.32 102.077 117.241 102.067 117.163V117.152C102.067 116.876 101.964 117.121 101.758 117.887C101.072 118.573 100.743 118.1 101.344 118.197C102.471 118.281 103.602 118.281 104.729 118.197H115.44C118.096 118.191 118.1 114.061 115.437 114.061Z" fill="#211715"/>
<path d="M73.4016 128.868C74.4512 121.475 75.5639 114.087 76.5164 106.68C76.7034 105.105 76.4569 103.508 75.8035 102.063C74.9616 99.8759 74.0369 97.7053 73.0297 95.5895C71.8881 93.1898 68.3239 95.2797 69.4614 97.6733C70.354 99.5495 71.1804 101.47 71.915 103.414C72.0834 103.858 72.2497 104.305 72.3902 104.756C72.4501 104.95 72.4873 105.161 72.5576 105.351C72.7001 105.737 72.5338 105.343 72.5483 105.247C72.4708 105.786 72.4284 106.334 72.3582 106.875C71.4831 113.607 70.3953 120.852 69.4169 127.766C69.2895 128.294 69.3682 128.851 69.6369 129.323C69.9056 129.795 70.3441 130.147 70.8633 130.307C71.392 130.448 71.9552 130.376 72.4309 130.105C72.9066 129.835 73.2565 129.388 73.4047 128.861L73.4016 128.868Z" fill="#211715"/>
<path d="M53.6394 81.383C48.3059 83.1805 43.1079 85.3569 38.0851 87.8956C33.6732 90.1144 29.4933 92.7668 25.6073 95.8136C21.7146 98.9961 19.0131 103.24 16.7227 107.661C14.3432 112.418 12.2354 117.305 10.4095 122.301C8.41766 127.517 6.54259 132.771 4.901 138.109C4.04146 140.904 3.27077 143.724 2.46289 146.534C1.5673 149.319 0.86892 152.163 0.372939 155.046C-0.276878 159.674 -0.185965 165.069 1.52174 169.488C3.24213 174 6.21149 177.93 10.083 180.818C12.6229 182.526 15.2487 184.102 17.95 185.542C20.7745 187.162 23.6321 188.732 26.5309 190.213C31.9526 192.981 37.5148 195.487 43.0408 198.038C43.5175 198.299 44.0762 198.368 44.602 198.23C45.1278 198.093 45.581 197.759 45.8684 197.298C46.1406 196.824 46.2153 196.261 46.0766 195.733C45.9378 195.204 45.5966 194.751 45.1267 194.471C35.4059 190.142 25.9132 185.319 16.6855 180.02C14.6157 178.949 12.6703 177.653 10.8847 176.155C9.32285 174.668 7.97739 172.969 6.88764 171.109C4.64479 167.332 4.05386 163.016 4.183 158.67C4.34209 153.292 6.29981 148.019 7.78437 142.892C9.28787 137.703 10.9753 132.574 12.8465 127.506C14.6028 122.75 16.3963 117.99 18.5172 113.383C20.5183 109.036 22.7705 104.453 26.1094 100.963C29.531 97.3894 34.0508 94.8925 38.3196 92.4752C43.5748 89.6324 49.0683 87.2536 54.7375 85.3658C57.2263 84.4829 56.1539 80.4909 53.6394 81.383Z" fill="#211715"/>
<path d="M336.857 169.678C336.992 160.874 337.423 152.081 337.425 143.274C337.425 140.617 333.293 140.612 333.293 143.274C333.293 152.081 332.859 160.874 332.725 169.678C332.685 172.336 336.817 172.338 336.857 169.678Z" fill="#211715"/>
<path d="M253.975 143.739C254.001 152.48 254.966 161.168 255.256 169.895C255.343 172.546 259.477 172.558 259.388 169.895C259.099 161.168 258.134 152.48 258.107 143.739C258.099 141.082 253.966 141.077 253.975 143.739Z" fill="#211715"/>
<path d="M313.51 104.19C311.592 111.584 309.21 118.872 306.867 126.142C304.046 134.895 301.142 143.629 297.993 152.267C297.329 154.09 296.65 155.91 295.942 157.716C295.67 158.404 295.392 159.092 295.108 159.781C294.893 160.297 295.278 159.392 295.064 159.884C295.003 160.023 294.944 160.162 294.883 160.297C294.756 160.585 294.626 160.872 294.494 161.158L296.278 160.135H295.161L296.945 161.158C296.725 160.689 296.517 160.214 296.312 159.736C296.519 160.208 296.189 159.44 296.131 159.299C295.965 158.895 295.802 158.489 295.641 158.083C295.032 156.551 294.45 155.008 293.884 153.462C292.424 149.507 291.033 145.526 289.669 141.537C286.643 132.691 283.752 123.799 280.997 114.861C279.911 111.318 278.828 107.769 277.898 104.183C277.231 101.611 273.243 102.702 273.914 105.28C275.863 112.779 278.285 120.169 280.667 127.539C283.49 136.272 286.395 144.985 289.552 153.605C290.738 156.845 291.921 160.11 293.385 163.242C293.565 163.556 293.825 163.816 294.139 163.996C294.452 164.176 294.808 164.269 295.17 164.265H296.286C296.648 164.269 297.004 164.176 297.317 163.996C297.631 163.816 297.891 163.556 298.07 163.242C301.119 156.717 303.327 149.736 305.652 142.932C308.683 134.076 311.575 125.173 314.33 116.224C315.443 112.593 316.55 108.955 317.504 105.278C318.172 102.704 314.188 101.605 313.519 104.18L313.51 104.19Z" fill="#211715"/>
<path d="M286.227 159.728C282.76 153.721 279.335 147.691 275.954 141.636C274.296 138.649 272.657 135.651 271.038 132.641C270.205 131.091 269.379 129.537 268.559 127.98C267.854 126.638 266.589 124.953 266.367 123.461V124.56C266.453 124.089 267.185 123.541 267.527 123.191C268.066 122.638 268.616 122.095 269.169 121.556C271.076 119.697 268.153 116.778 266.247 118.636C264.962 119.887 262.991 121.347 262.446 123.117C261.852 125.047 263.479 127.177 264.332 128.805C266.261 132.512 268.234 136.197 270.251 139.859C274.29 147.23 278.453 154.533 282.654 161.813C283.983 164.115 287.555 162.037 286.223 159.728H286.227Z" fill="#211715"/>
<path d="M322.344 136.937C323.85 134.183 325.328 131.419 326.777 128.642C327.121 127.977 327.465 127.312 327.81 126.645C328.284 125.855 328.675 125.019 328.977 124.148C329.568 121.95 327.664 120.391 326.291 119.003C324.417 117.111 321.494 120.035 323.368 121.923C323.902 122.461 324.432 123.002 324.944 123.56C325.456 124.117 324.7 123.137 324.986 123.119C324.825 123.39 324.68 123.671 324.551 123.959C323.932 125.173 323.306 126.384 322.675 127.592C321.405 130.027 320.1 132.445 318.78 134.852C318.644 135.086 318.554 135.345 318.517 135.614C318.48 135.883 318.497 136.156 318.566 136.419C318.634 136.681 318.754 136.927 318.918 137.143C319.082 137.359 319.287 137.541 319.522 137.678C319.756 137.815 320.015 137.904 320.284 137.941C320.553 137.978 320.826 137.962 321.089 137.893C321.351 137.824 321.598 137.704 321.814 137.54C322.03 137.376 322.212 137.171 322.349 136.937H322.344Z" fill="#211715"/>
<path d="M308.339 161.808C310.524 158.022 312.687 154.223 314.788 150.39C314.925 150.156 315.014 149.897 315.051 149.629C315.088 149.36 315.071 149.087 315.002 148.824C314.933 148.562 314.813 148.316 314.649 148.1C314.485 147.884 314.28 147.702 314.046 147.565C313.812 147.428 313.553 147.339 313.284 147.302C313.015 147.266 312.741 147.282 312.479 147.351C312.216 147.42 311.97 147.54 311.754 147.704C311.538 147.868 311.356 148.072 311.219 148.307C309.119 152.14 306.956 155.938 304.771 159.723C304.494 160.196 304.417 160.759 304.556 161.289C304.695 161.819 305.039 162.272 305.512 162.549C305.985 162.825 306.549 162.903 307.079 162.764C307.609 162.625 308.062 162.281 308.339 161.808Z" fill="#211715"/>
<path d="M334.688 206.081C335.267 211.657 336.077 217.2 336.583 222.778C336.559 223.394 336.61 224.011 336.736 224.614L336.752 224.821C337.681 224.172 337.835 223.903 337.211 224.016C337.014 224.012 336.817 224.027 336.622 224.059C335.534 224.137 334.444 224.211 333.355 224.279C331.039 224.421 328.721 224.537 326.402 224.609C322.035 224.894 317.65 224.747 313.312 224.169C310.955 223.887 308.66 223.224 306.515 222.207C304.451 221.056 302.678 219.449 301.33 217.509C300.159 215.792 299.327 213.866 298.878 211.837C298.609 210.718 298.37 209.591 298.143 208.461C297.859 207.046 297.754 205.508 297.359 204.125C297.195 203.495 296.812 202.944 296.278 202.572C295.744 202.2 295.094 202.031 294.446 202.095C293.813 202.171 293.225 202.462 292.782 202.921C292.339 203.379 292.069 203.977 292.015 204.612C291.505 207.193 291.139 209.809 290.466 212.356C289.917 214.436 288.913 216.368 287.526 218.013C286.14 219.658 284.405 220.974 282.447 221.867C277.934 223.965 272.887 224.519 267.973 224.758C265.098 224.896 262.219 224.92 259.338 224.83C257.925 224.787 256.514 224.717 255.102 224.604C254.867 224.565 254.629 224.544 254.39 224.543C253.929 224.42 253.915 224.523 254.347 224.853C254.629 225.335 254.742 225.312 254.687 224.786C254.803 224.135 254.863 223.474 254.865 222.813C255.407 217.168 256.192 211.55 256.804 205.913C256.801 205.366 256.582 204.843 256.196 204.456C255.809 204.07 255.285 203.851 254.738 203.848C254.194 203.86 253.676 204.082 253.291 204.466C252.906 204.851 252.684 205.369 252.672 205.913C252.1 211.174 251.379 216.419 250.844 221.683C250.597 224.126 249.811 227.642 252.992 228.492C254.176 228.723 255.38 228.838 256.586 228.836C257.908 228.915 259.231 228.964 260.555 228.989C265.836 229.19 271.125 228.865 276.342 228.017C281.489 227.073 286.694 225.142 290.276 221.178C292.154 219.088 293.538 216.602 294.324 213.904C294.687 212.672 294.938 211.402 295.194 210.145C295.407 208.405 295.73 206.681 296.16 204.982L295.628 205.893L295.271 206.115H294.173L293.819 205.893L293.287 204.982C293.666 206.414 293.942 207.872 294.114 209.344C294.381 210.687 294.665 212.039 294.999 213.371C295.568 215.722 296.583 217.942 297.988 219.911C299.613 222.216 301.703 224.155 304.123 225.604C306.446 226.831 308.962 227.654 311.562 228.036C316.47 228.788 321.443 229.023 326.4 228.738C328.95 228.658 331.498 228.531 334.045 228.364C336.266 228.221 339.506 228.6 340.597 226.195C341.209 224.844 340.738 222.987 340.597 221.558C340.44 219.974 340.257 218.392 340.069 216.808C339.641 213.233 339.191 209.661 338.819 206.079C338.804 205.536 338.581 205.019 338.197 204.635C337.813 204.251 337.296 204.029 336.753 204.014C336.206 204.018 335.682 204.237 335.296 204.623C334.909 205.01 334.69 205.533 334.686 206.079L334.688 206.081Z" fill="#211715"/>
<path d="M315.991 192.874C314.463 189.982 313.015 187.261 311.968 185.289L309.534 185.378C305.962 185.507 301.429 185.805 298.128 186.281C295.182 186.705 294.139 187.916 292.46 189.393C291.889 189.95 291.494 190.662 291.324 191.441L290.743 190.781C288.707 188.704 283.75 187.302 280.046 185.807L279.558 185.607C277.448 189.58 273.896 196.236 271.238 201.461C271.503 201.673 271.672 201.814 271.672 201.814C274.338 204.028 277.059 206.136 279.491 208.571C278.39 209.865 278.034 211.306 278.659 212.237C279.354 213.269 280.588 214.567 282.153 214.292C282.11 214.363 280.84 216.743 282.813 218.084C283.97 218.872 285.844 218.828 287.8 218.533C287.912 219.343 288.321 220.084 288.948 220.61C289.576 221.136 290.376 221.41 291.195 221.378C292.559 221.267 293.519 220.379 294.8 219.927C296.866 219.204 305.739 212.659 310.244 209.062C313.181 206.717 316.649 204.809 318.492 203.416L320.633 201.801C319.234 199.051 317.575 195.867 315.991 192.874Z" fill="white"/>
<path d="M279.494 187.8C281.418 188.573 283.387 189.23 285.312 190.006L285.622 190.132C285.991 190.281 285.43 190.046 285.659 190.147C285.889 190.248 286.102 190.34 286.322 190.44C286.736 190.632 287.154 190.833 287.562 191.052C287.953 191.261 288.333 191.492 288.699 191.742C288.771 191.791 288.839 191.845 288.912 191.893C289.126 192.031 288.573 191.601 288.843 191.841C288.991 191.973 289.141 192.102 289.281 192.243C289.473 192.435 289.701 192.587 289.952 192.691C290.202 192.795 290.471 192.848 290.742 192.848C291.014 192.848 291.282 192.795 291.533 192.691C291.784 192.587 292.011 192.435 292.203 192.243C292.395 192.052 292.548 191.824 292.651 191.573C292.755 191.323 292.809 191.054 292.809 190.783C292.809 190.512 292.755 190.243 292.652 189.993C292.548 189.742 292.396 189.514 292.204 189.323C290.602 187.916 288.74 186.838 286.722 186.148C284.702 185.316 282.623 184.632 280.595 183.817C280.066 183.673 279.502 183.744 279.026 184.015C278.549 184.286 278.2 184.735 278.054 185.262C277.924 185.79 278.001 186.348 278.27 186.821C278.54 187.293 278.979 187.645 279.5 187.803L279.494 187.8Z" fill="#211715"/>
<path d="M279.566 205.789C277.5 203.888 275.289 202.148 273.128 200.355C272.732 199.981 272.212 199.765 271.667 199.75C271.259 199.75 270.859 199.871 270.52 200.098C270.18 200.325 269.915 200.648 269.759 201.025C269.602 201.402 269.562 201.817 269.641 202.218C269.721 202.619 269.918 202.986 270.207 203.275C272.367 205.069 274.575 206.808 276.644 208.709C276.836 208.901 277.063 209.053 277.314 209.157C277.565 209.261 277.833 209.314 278.105 209.314C278.376 209.314 278.645 209.261 278.895 209.157C279.146 209.053 279.374 208.901 279.566 208.709C279.758 208.518 279.91 208.29 280.014 208.039C280.118 207.789 280.171 207.52 280.171 207.249C280.171 206.978 280.118 206.709 280.014 206.459C279.91 206.208 279.758 205.98 279.566 205.789Z" fill="#211715"/>
<path d="M293.701 193.535C292.609 192.488 293.584 191.16 294.46 190.372C295.393 189.396 296.591 188.714 297.907 188.41C299.727 188.081 301.567 187.874 303.414 187.791C305.452 187.632 307.492 187.52 309.533 187.445C312.185 187.342 312.198 183.211 309.533 183.314C307.076 183.405 304.618 183.547 302.168 183.764C299.717 183.98 297.067 184.083 294.79 185.118C292.922 185.985 291.313 187.327 290.125 189.008C289.357 190.135 289.003 191.492 289.122 192.85C289.242 194.207 289.827 195.482 290.78 196.457C292.7 198.296 295.626 195.379 293.701 193.535Z" fill="#211715"/>
<path d="M295.769 191.135C291.154 195.008 286.665 199.045 282.219 203.113C280.542 204.645 278.472 206.196 277.246 208.138C276.677 208.918 276.355 209.85 276.321 210.815C276.288 211.779 276.544 212.732 277.057 213.549C277.577 214.43 278.324 215.155 279.22 215.65C280.115 216.145 281.127 216.392 282.15 216.364L280.366 213.256C279.882 214.078 279.637 215.018 279.658 215.971C279.678 216.924 279.963 217.853 280.481 218.654C282.278 221.172 285.647 220.913 288.346 220.531L285.73 218.54C285.813 219.431 286.112 220.288 286.6 221.037C287.089 221.787 287.753 222.406 288.534 222.842C290.497 223.932 292.545 223.35 294.411 222.392C296.788 221.2 299.08 219.845 301.269 218.336C304.231 216.262 307.128 214.096 309.983 211.88C313.065 209.488 316.405 207.521 319.531 205.207C319.992 204.92 320.326 204.467 320.464 203.942C320.602 203.417 320.533 202.859 320.273 202.382C319.994 201.912 319.54 201.571 319.011 201.432C318.482 201.293 317.92 201.368 317.445 201.64C314.553 203.785 311.403 205.533 308.568 207.777C306.223 209.636 303.837 211.438 301.409 213.184C299.316 214.768 297.14 216.237 294.889 217.586C294.73 217.677 293.712 218.195 294.348 217.905C293.556 218.267 292.771 218.635 291.983 219.005C291.44 219.259 290.892 219.508 290.353 219.117C290.093 218.929 289.843 218.335 289.863 218.54C289.854 218.225 289.774 217.916 289.631 217.636C289.487 217.356 289.282 217.111 289.031 216.92C288.781 216.729 288.49 216.597 288.182 216.532C287.873 216.468 287.554 216.473 287.248 216.548C286.472 216.658 284.47 217.044 283.856 216.308C283.709 216.13 283.762 215.984 283.798 215.782C283.844 215.584 283.905 215.39 283.98 215.201C283.955 215.277 283.806 215.575 283.934 215.341C284.62 214.082 283.787 212.075 282.15 212.234C281.208 212.325 280.146 211.511 280.613 210.56C281.057 209.844 281.621 209.211 282.281 208.687C283.888 207.158 285.535 205.668 287.182 204.18C290.971 200.757 294.778 197.343 298.691 194.06C300.73 192.349 297.794 189.44 295.769 191.14V191.135Z" fill="#211715"/>
<path d="M297.787 197.475C295.846 198.885 294.068 200.53 292.262 202.108C290.305 203.823 288.37 205.565 286.373 207.225C285.988 207.613 285.771 208.138 285.771 208.685C285.771 209.232 285.988 209.757 286.373 210.145C286.768 210.519 287.291 210.728 287.835 210.728C288.379 210.728 288.902 210.519 289.296 210.145C291.259 208.516 293.16 206.808 295.081 205.126C296.08 204.251 297.079 203.376 298.091 202.515C298.495 202.17 298.901 201.828 299.313 201.491C299.473 201.36 299.635 201.231 299.798 201.101C300.165 200.806 299.427 201.373 299.677 201.193C299.745 201.144 299.812 201.09 299.883 201.042C300.347 200.757 300.682 200.304 300.82 199.778C300.958 199.251 300.888 198.692 300.624 198.217C300.343 197.748 299.89 197.408 299.362 197.27C298.834 197.131 298.272 197.205 297.797 197.475H297.787Z" fill="#211715"/>
<path d="M328.807 134.742H314.385C314.116 134.742 313.857 134.849 313.667 135.039C313.477 135.229 313.369 135.487 313.369 135.756V140.147C313.369 140.28 313.395 140.412 313.445 140.535C313.496 140.658 313.57 140.77 313.664 140.864C313.758 140.958 313.87 141.033 313.993 141.084C314.116 141.135 314.247 141.162 314.381 141.162H328.804C328.937 141.162 329.069 141.136 329.192 141.085C329.315 141.034 329.427 140.959 329.521 140.865C329.616 140.77 329.69 140.658 329.741 140.535C329.792 140.412 329.818 140.28 329.818 140.147V135.756C329.819 135.623 329.793 135.491 329.742 135.368C329.691 135.245 329.617 135.134 329.523 135.039C329.429 134.945 329.317 134.87 329.194 134.819C329.072 134.768 328.94 134.742 328.807 134.742Z" fill="#78B3BF"/>
<path d="M328.806 132.678H316.658C315.411 132.678 313.882 132.44 312.773 133.134C312.322 133.423 311.951 133.821 311.694 134.292C311.437 134.762 311.302 135.289 311.302 135.825C311.264 136.915 311.302 138.014 311.302 139.104C311.302 139.441 311.288 139.782 311.302 140.118C311.307 140.772 311.514 141.407 311.897 141.937C312.279 142.467 312.818 142.864 313.437 143.075C314.203 143.243 314.99 143.295 315.772 143.228H325.567C326.704 143.228 327.874 143.304 329.007 143.208C329.782 143.147 330.506 142.8 331.038 142.234C331.57 141.668 331.871 140.925 331.884 140.148C331.93 139.085 331.884 138.009 331.884 136.947C331.884 136.553 331.901 136.155 331.884 135.761C331.863 134.951 331.532 134.18 330.959 133.607C330.387 133.035 329.616 132.703 328.806 132.681C328.259 132.685 327.736 132.904 327.349 133.29C326.962 133.677 326.744 134.2 326.74 134.747C326.752 135.291 326.973 135.809 327.358 136.194C327.743 136.579 328.262 136.8 328.806 136.812C328.242 136.755 327.692 136.096 327.751 135.828C327.739 135.951 327.739 136.074 327.751 136.197V138.965C327.702 139.328 327.702 139.696 327.751 140.059C327.849 140.343 327.997 139.49 328.061 139.409L328.804 139.099H314.714C314.603 139.085 314.491 139.085 314.38 139.099L315.126 139.409L315.436 140.151C315.44 140.091 315.44 140.031 315.436 139.972C315.467 139.588 315.467 139.202 315.436 138.818C315.436 137.895 315.511 136.937 315.436 136.016C315.445 135.937 315.445 135.858 315.436 135.78V135.769C315.436 135.493 315.332 135.739 315.126 136.504C314.44 137.19 314.111 136.717 314.712 136.814C315.839 136.898 316.971 136.898 318.098 136.814H328.809C331.465 136.809 331.469 132.678 328.806 132.678Z" fill="#211715"/>
<path d="M101.188 179.105C99.9022 176.354 98.7203 173.83 97.868 171.973C92.7006 172.068 87.542 172.438 82.4139 173.081C79.015 173.571 77.8094 174.969 75.8724 176.674C75.2258 177.3 74.775 178.1 74.5748 178.978L73.8878 178.276C71.1831 175.519 64.0207 173.792 59.7344 171.744C56.8634 177.329 53.4635 184.119 50.6152 189.955C53.9077 192.753 57.3376 195.336 60.4059 198.319C59.0484 199.783 58.6031 202.095 59.3077 203.145C60.1104 204.338 62.1683 205.726 63.9742 205.411C63.6729 206.139 63.6317 206.948 63.8575 207.703C64.0833 208.458 64.5623 209.112 65.2139 209.555C66.5497 210.464 68.2409 210.647 70.4982 210.306C70.5553 210.734 70.6972 211.146 70.9157 211.518C71.1342 211.891 71.4249 212.216 71.7707 212.474C72.1165 212.733 72.5104 212.92 72.9295 213.025C73.3486 213.129 73.7843 213.149 74.2111 213.083C75.7308 213.05 77.2315 212.739 78.639 212.165C82.9491 210.157 88.8739 205.691 96.4083 199.374C100.491 195.951 105.691 193.535 107.058 191.836C105.403 188.14 103.173 183.353 101.188 179.105Z" fill="white"/>
<path d="M279.612 101.402C278.783 101.905 278.105 102.622 277.649 103.477C277.14 104.525 276.842 105.663 276.77 106.826C276.671 108.872 277.164 110.904 278.191 112.677C278.471 113.146 278.924 113.487 279.453 113.625C279.982 113.764 280.544 113.689 281.018 113.418C281.483 113.133 281.819 112.681 281.957 112.154C282.095 111.627 282.024 111.068 281.759 110.593C281.663 110.414 281.569 110.234 281.48 110.052C281.435 109.961 281.391 109.869 281.348 109.777C281.255 109.566 281.264 109.591 281.375 109.852C281.336 109.709 281.283 109.571 281.216 109.439C281.152 109.259 281.095 109.077 281.047 108.892C281 108.707 280.969 108.526 280.935 108.341C280.855 107.908 280.96 108.747 280.929 108.273C280.895 107.894 280.881 107.512 280.887 107.131C280.867 106.955 280.879 106.777 280.922 106.605C280.878 106.904 280.874 106.938 280.911 106.708C280.929 106.605 280.947 106.51 280.969 106.41C281.019 106.051 281.127 105.702 281.289 105.378C281.167 105.661 281.153 105.704 281.247 105.508C281.284 105.435 281.323 105.362 281.367 105.292L281.43 105.189C281.554 105.011 281.514 105.059 281.313 105.329C281.429 105.232 281.536 105.123 281.631 105.005C281.794 104.867 281.747 104.902 281.491 105.108C281.558 105.061 281.626 105.014 281.697 104.97C281.931 104.833 282.136 104.651 282.301 104.435C282.465 104.219 282.584 103.973 282.653 103.711C282.722 103.448 282.739 103.175 282.702 102.906C282.665 102.637 282.575 102.378 282.438 102.144C282.301 101.91 282.12 101.705 281.903 101.541C281.687 101.377 281.441 101.257 281.178 101.189C280.916 101.12 280.642 101.103 280.373 101.14C280.105 101.177 279.846 101.267 279.611 101.403L279.612 101.402Z" fill="#211715"/>
<path d="M60.991 174.526C63.2121 175.418 65.486 176.178 67.7061 177.073L68.0625 177.218C68.4169 177.362 67.9737 177.175 68.1823 177.268C68.4375 177.38 68.6989 177.49 68.9479 177.606C69.4303 177.827 69.9086 178.06 70.3756 178.313C70.8274 178.554 71.2657 178.82 71.6887 179.109C71.7713 179.166 71.8498 179.23 71.9345 179.283C72.1505 179.42 71.637 179.022 71.919 179.273C72.0905 179.426 72.2631 179.575 72.4253 179.737C72.6171 179.928 72.8449 180.081 73.0955 180.184C73.3462 180.288 73.6149 180.342 73.8862 180.342C74.1576 180.342 74.4263 180.289 74.677 180.185C74.9277 180.081 75.1555 179.929 75.3474 179.737C75.5393 179.545 75.6915 179.318 75.7954 179.067C75.8993 178.817 75.9528 178.548 75.9528 178.277C75.9529 178.006 75.8995 177.737 75.7957 177.487C75.6919 177.236 75.5397 177.008 75.3479 176.816C73.5396 175.23 71.438 174.014 69.1617 173.235C66.829 172.274 64.4301 171.48 62.0891 170.543C61.5604 170.4 60.9961 170.471 60.5198 170.742C60.0436 171.013 59.694 171.461 59.5477 171.989C59.418 172.517 59.4956 173.075 59.7646 173.547C60.0337 174.02 60.4736 174.371 60.9941 174.529L60.991 174.526Z" fill="#211715"/>
<path d="M60.7662 195.822C58.3787 193.627 55.8301 191.62 53.3362 189.55C52.9399 189.176 52.4195 188.961 51.8743 188.945C51.4658 188.945 51.0664 189.067 50.7267 189.294C50.387 189.52 50.1222 189.843 49.9658 190.22C49.8095 190.598 49.7686 191.013 49.8483 191.413C49.928 191.814 50.1247 192.182 50.4135 192.471C52.9074 194.536 55.4571 196.548 57.8446 198.743C58.2343 199.119 58.7562 199.327 59.298 199.322C59.8397 199.318 60.3579 199.1 60.741 198.717C61.1241 198.335 61.3414 197.817 61.3461 197.275C61.3508 196.734 61.1426 196.212 60.7662 195.822Z" fill="#211715"/>
<path d="M77.0809 181.681C76.7893 181.427 76.5822 181.091 76.4875 180.716C76.3927 180.341 76.4149 179.947 76.551 179.585C76.7853 178.78 77.2797 178.074 77.957 177.579C79.0856 176.431 80.5118 175.619 82.0759 175.234C84.2046 174.847 86.3569 174.603 88.5183 174.504C90.8697 174.321 93.2251 174.195 95.5816 174.105C98.2325 174.007 98.246 169.876 95.5816 169.974C92.7437 170.078 89.9079 170.243 87.0792 170.491C84.2981 170.737 81.2991 170.844 78.7235 172.011C76.615 172.984 74.7984 174.493 73.4548 176.387C72.6042 177.626 72.2097 179.121 72.3383 180.619C72.467 182.116 73.1109 183.522 74.1604 184.598C76.0809 186.438 79.0066 183.521 77.082 181.678L77.0809 181.681Z" fill="#211715"/>
<path d="M79.9166 178.905C75.6665 182.471 71.5114 186.151 67.3129 189.777C65.3417 191.48 63.3695 193.185 61.3622 194.844C59.3219 196.534 57.4179 198.062 57.0015 200.878C56.4437 204.646 60.2868 207.9 63.9708 207.478L62.1866 204.37C61.7362 205.321 61.5665 206.382 61.6975 207.426C61.8285 208.47 62.2548 209.456 62.9263 210.266C64.9564 212.641 68.1951 212.692 71.0382 212.299L68.4234 210.308C68.4865 211.179 68.7686 212.021 69.2438 212.754C69.7189 213.488 70.3717 214.09 71.1415 214.504C73.0331 215.526 75.4537 215.181 77.461 214.73C80.6584 214.007 83.6678 211.785 86.2939 209.928C89.887 207.386 93.319 204.614 96.7003 201.802C99.9401 199.109 103.589 197.138 106.959 194.644C107.42 194.356 107.753 193.903 107.891 193.378C108.028 192.853 107.96 192.294 107.7 191.818C107.42 191.348 106.967 191.007 106.438 190.868C105.909 190.73 105.347 190.805 104.873 191.077C101.998 193.206 98.8171 194.87 95.9885 197.073C92.8438 199.52 89.8592 202.162 86.672 204.561C84.3088 206.397 81.8191 208.064 79.2214 209.551C77.9685 210.289 76.5769 210.761 75.1334 210.939C74.4774 211.009 73.5559 211.227 72.9639 210.789C72.6943 210.588 72.5414 210.16 72.5507 210.308C72.5415 209.993 72.4623 209.685 72.3186 209.405C72.175 209.125 71.9706 208.881 71.7204 208.69C71.4701 208.499 71.1804 208.367 70.8724 208.302C70.5644 208.237 70.2458 208.242 69.94 208.317C68.7788 208.477 66.9502 208.612 66.0773 207.606C65.9688 207.482 65.8866 207.336 65.8357 207.179C65.7847 207.022 65.7661 206.856 65.7808 206.691C65.7808 206.673 66.1124 205.687 65.7549 206.455C66.3366 205.207 65.6826 203.151 63.9708 203.348C63.5559 203.398 63.135 203.362 62.7349 203.241C62.3348 203.121 61.9641 202.918 61.6463 202.647C61.1422 202.249 61.0265 202.182 61.0409 201.732C61.1104 201.167 61.3059 200.624 61.6128 200.144C61.9198 199.664 62.3305 199.26 62.8148 198.959C64.8179 197.361 66.7612 195.687 68.7034 194.016C73.4216 189.96 78.0715 185.825 82.8372 181.825C84.8765 180.114 81.9415 177.207 79.9166 178.905Z" fill="#211715"/>
<path d="M81.7636 186.6C77.6529 190.361 73.3387 193.908 69.0668 197.481C68.6812 197.87 68.4648 198.395 68.4648 198.942C68.4648 199.489 68.6812 200.013 69.0668 200.402C69.461 200.776 69.9839 200.985 70.5276 200.985C71.0713 200.985 71.5942 200.776 71.9884 200.402C76.2613 196.829 80.5755 193.277 84.6862 189.521C85.0701 189.132 85.2853 188.607 85.2853 188.061C85.2853 187.514 85.0701 186.989 84.6862 186.6C84.2928 186.224 83.7693 186.014 83.2249 186.014C82.6804 186.014 82.157 186.224 81.7636 186.6Z" fill="#211715"/>
<path d="M29.2797 191.286C32.4462 192.725 35.561 194.287 38.715 195.755C40.0608 196.382 41.4076 197.006 42.7554 197.627C44.2824 198.332 45.8971 198.902 47.2618 197.472C47.8434 196.712 48.3082 195.869 48.641 194.972C49.1431 193.948 49.6527 192.929 50.17 191.915C51.2802 189.725 52.407 187.543 53.5503 185.37C55.6743 181.311 57.8293 177.268 59.9761 173.222C61.0629 171.174 62.3068 168.837 59.7933 167.177C58.2694 166.171 56.4812 165.414 54.8685 164.555L50.0636 161.989C43.2906 158.367 36.53 154.718 29.757 151.097C27.4129 149.844 25.323 153.408 27.6722 154.663C32.6001 157.298 37.5176 159.953 42.4455 162.593C44.9408 163.929 47.4364 165.264 49.9324 166.598L53.8943 168.712C55.3084 169.349 56.671 170.094 57.9698 170.941L57.2281 170.2C56.8148 169.605 57.538 169.183 57.1423 169.754C57.0415 169.92 56.9508 170.093 56.8706 170.27L56.2446 171.451L54.7156 174.328C53.4649 176.683 52.2179 179.039 50.9748 181.398C49.6772 183.866 48.3917 186.341 47.1182 188.821C46.5769 189.88 46.041 190.943 45.5107 192.008C45.1409 192.753 44.7307 194.238 44.1026 194.747L45.0138 194.216C45.2545 194.119 45.5644 194.423 45.0241 194.146C44.7276 193.992 44.4136 193.864 44.1109 193.724L42.5912 193.021C41.3728 192.457 40.1551 191.89 38.9382 191.321C36.4091 190.136 33.9101 188.877 31.3676 187.721C30.8906 187.461 30.3322 187.393 29.8065 187.531C29.2809 187.668 28.8278 188.002 28.54 188.463C28.2679 188.936 28.1932 189.498 28.332 190.027C28.4708 190.556 28.8119 191.008 29.2818 191.288L29.2797 191.286Z" fill="#211715"/>
<path d="M101.922 85.3658C106.917 87.0462 111.785 89.0822 116.489 91.4581C120.659 93.5168 124.609 95.994 128.279 98.8516C131.909 101.855 134.338 105.793 136.472 109.94C138.71 114.445 140.696 119.072 142.42 123.798C144.301 128.732 146.07 133.705 147.635 138.749C148.451 141.383 149.2 144.036 149.946 146.691C150.692 149.346 151.56 151.964 152.067 154.671C152.994 159.242 152.679 163.977 151.153 168.385C149.592 172.361 146.82 175.747 143.228 178.063C138.063 181.214 132.803 184.242 127.398 186.97C124.685 188.339 121.923 189.624 119.176 190.917C117.872 191.529 116.567 192.138 115.259 192.744C114.62 193.041 113.98 193.338 113.339 193.633L112.602 193.974L112.241 194.141C111.759 194.337 111.762 194.36 112.25 194.211L113.162 194.742C112.559 194.254 112.173 192.846 111.819 192.133C111.268 191.024 110.711 189.918 110.147 188.816C108.878 186.332 107.592 183.858 106.29 181.394C105.05 179.033 103.803 176.676 102.549 174.323C102.06 173.4 101.569 172.477 101.078 171.555C100.866 171.155 100.655 170.756 100.444 170.357C100.352 170.185 100.273 169.997 100.166 169.834C99.7134 169.142 100.41 169.656 100.037 170.197L99.296 170.939C100.524 170.136 101.812 169.431 103.149 168.828L107.116 166.712C109.684 165.339 112.252 163.965 114.819 162.59C119.745 159.951 124.663 157.295 129.593 154.661C131.939 153.407 129.854 149.839 127.507 151.094C120.01 155.101 112.527 159.14 105.031 163.145C103.038 164.209 101.044 165.272 99.0512 166.333C97.2298 167.303 95.2918 168.478 96.1048 170.882C96.9991 172.981 98.0561 175.008 99.2661 176.943C102.127 182.327 104.99 187.712 107.725 193.162C108.275 194.258 108.782 195.379 109.347 196.466C110.346 198.387 112.105 198.719 113.972 197.872C117.667 196.196 121.338 194.464 124.998 192.714C128.924 190.839 132.789 188.872 136.584 186.745C140.163 184.737 144.043 182.811 147.283 180.278C150.083 178.021 152.375 175.199 154.009 171.996C155.533 168.874 156.394 165.47 156.536 161.999C156.778 157.788 156.28 153.568 155.066 149.529C153.889 145.332 152.713 141.13 151.41 136.972C148.928 129.02 146.03 121.205 142.725 113.558C139.648 106.467 136.01 99.53 129.735 94.7769C123.356 90.1195 116.372 86.353 108.975 83.5815C107.005 82.8101 105.016 82.0863 103.022 81.3789C100.512 80.4878 99.4314 84.4767 101.924 85.3617L101.922 85.3658Z" fill="#211715"/>
<path d="M337.147 166.067C329.459 170.177 321.787 174.318 314.095 178.42C312.372 179.339 309.417 180.217 308.897 182.338C308.567 183.686 309.429 184.913 310.034 186.055C311.342 188.522 312.651 190.989 313.96 193.456C315.502 196.376 317.037 199.301 318.536 202.244C319.166 203.479 319.786 204.718 320.396 205.961C321.199 207.614 322.346 209.245 324.472 208.588C326.31 207.888 328.099 207.066 329.828 206.128C331.816 205.201 333.8 204.264 335.781 203.317C339.851 201.363 343.84 199.259 347.747 197.006C351.293 194.962 355.03 193.027 357.884 190.036C360.493 187.419 362.363 184.159 363.305 180.586C364.156 177.026 364.226 173.324 363.512 169.735C362.839 166.726 362.003 163.756 361.008 160.838C357.621 149.931 353.916 139.086 349.867 128.406C348.136 123.628 345.534 119.212 342.192 115.382C339.918 113.104 337.279 111.224 334.383 109.82C330.885 107.948 327.284 106.276 323.596 104.811C321.998 104.168 320.383 103.565 318.741 103.034C316.205 102.208 315.12 106.2 317.643 107.017C322.398 108.593 327.011 110.57 331.432 112.927C335.151 114.879 338.471 117.042 341.005 120.447C342.323 122.254 343.474 124.179 344.441 126.196C344.751 126.827 345.024 127.476 345.339 128.105C345.502 128.43 345.113 127.514 345.279 127.963C345.397 128.279 345.529 128.591 345.65 128.906C346.639 131.476 347.569 134.069 348.496 136.664C351.36 144.671 354.127 152.719 356.676 160.835C357.956 164.913 359.617 169.211 359.856 173.504C360.207 177.886 358.902 182.24 356.198 185.707C354.279 187.966 351.958 189.851 349.353 191.266C346.399 193.033 343.413 194.753 340.378 196.381C337.463 197.944 334.489 199.375 331.499 200.794C329.984 201.513 328.465 202.226 326.94 202.933C325.698 203.642 324.39 204.229 323.035 204.688H324.134L324.016 204.651L324.756 205.391C324.236 204.557 323.787 203.68 323.413 202.771C322.931 201.801 322.444 200.834 321.952 199.871C320.817 197.651 319.668 195.439 318.504 193.235C317.417 191.169 316.325 189.104 315.227 187.039C314.757 186.155 314.288 185.271 313.818 184.386L313.289 183.391C313.208 183.211 313.116 183.036 313.013 182.867C312.582 182.264 313.409 182.711 312.91 183.437L312.168 184.178C313.235 183.481 314.355 182.867 315.516 182.343L319.228 180.363C321.559 179.118 323.889 177.871 326.219 176.622C330.558 174.297 334.895 171.969 339.23 169.638C341.576 168.384 339.491 164.817 337.144 166.071L337.147 166.067Z" fill="#211715"/>
<path d="M51.818 192.183C54.9235 185.797 58.0975 179.445 61.34 173.127C61.6043 172.652 61.6747 172.092 61.5367 171.566C61.3988 171.04 61.063 170.587 60.5993 170.302C60.1248 170.031 59.563 169.957 59.0344 170.096C58.5058 170.234 58.0525 170.574 57.7717 171.042C54.5299 177.36 51.3545 183.713 48.2455 190.101C47.9832 190.577 47.9138 191.136 48.0519 191.662C48.1899 192.188 48.5248 192.641 48.9873 192.927C49.4616 193.199 50.0236 193.273 50.5523 193.134C51.081 192.996 51.534 192.655 51.8139 192.186L51.818 192.183Z" fill="#211715"/>
<path d="M96.7642 174.502C99.6001 180.595 102.497 186.664 105.226 192.808C105.506 193.278 105.959 193.62 106.488 193.758C107.017 193.897 107.58 193.821 108.054 193.549C108.517 193.263 108.852 192.81 108.99 192.284C109.128 191.758 109.058 191.199 108.795 190.724C106.065 184.58 103.168 178.512 100.333 172.418C100.053 171.948 99.5994 171.607 99.0705 171.469C98.5416 171.33 97.9794 171.404 97.5049 171.676C97.041 171.961 96.705 172.414 96.567 172.941C96.429 173.467 96.4997 174.027 96.7642 174.502Z" fill="#211715"/>
<path d="M252.455 169.633C256.794 171.954 261.131 174.282 265.466 176.618C267.724 177.826 269.983 179.035 272.242 180.243C273.476 180.903 274.711 181.562 275.948 182.22C277.186 182.778 278.379 183.431 279.517 184.173L278.775 183.433C278.304 182.748 279.104 182.245 278.672 182.863C278.586 183.002 278.51 183.147 278.442 183.295C278.251 183.658 278.059 184.02 277.866 184.382C277.42 185.222 276.973 186.063 276.523 186.903C275.404 189.008 274.289 191.116 273.177 193.227C272.042 195.385 270.917 197.548 269.804 199.717C269.286 200.73 268.773 201.745 268.266 202.763C267.894 203.673 267.444 204.55 266.923 205.384L267.665 204.643L267.546 204.681H268.644C267.493 204.295 266.382 203.8 265.326 203.202C264.038 202.603 262.751 202.001 261.463 201.397C258.771 200.129 256.074 198.864 253.429 197.498C250.64 196.058 247.903 194.53 245.192 192.954C242.733 191.699 240.395 190.22 238.209 188.534C234.718 185.649 232.465 181.537 231.914 177.043C231.389 172.39 232.804 168.013 234.141 163.619C236.642 155.399 239.427 147.263 242.292 139.163C243.344 136.191 244.406 133.224 245.51 130.271C245.8 129.497 246.114 128.731 246.401 127.956C246.56 127.528 246.145 128.42 246.341 128.099C246.664 127.569 246.871 126.944 247.143 126.386C247.712 125.217 248.32 124.064 248.993 122.95C251.141 118.982 254.488 115.792 258.556 113.836C263.481 111.06 268.666 108.774 274.037 107.01C276.557 106.194 275.483 102.204 272.939 103.027C269.35 104.225 265.838 105.639 262.42 107.261C259.318 108.628 256.334 110.247 253.497 112.103C248.286 115.661 244.774 121.076 242.416 126.863C238.498 136.478 235.288 146.465 232.102 156.338C231.172 159.222 230.262 162.114 229.409 165.022C228.232 168.494 227.648 172.14 227.683 175.806C227.849 179.414 228.898 182.927 230.741 186.034C232.583 189.142 235.161 191.749 238.248 193.628C245.874 198.236 253.757 202.408 261.857 206.122C263.623 207.11 265.471 207.947 267.379 208.622C269.445 209.17 270.516 207.546 271.29 205.956C272.621 203.222 274.022 200.52 275.429 197.824C276.9 195.002 278.384 192.189 279.88 189.385C280.47 188.273 281.06 187.161 281.652 186.048C282.288 184.849 283.146 183.622 282.748 182.203C282.181 180.18 279.259 179.312 277.59 178.417C275.573 177.343 273.557 176.266 271.54 175.186C267.63 173.094 263.721 170.999 259.814 168.9C258.058 167.956 256.302 167.006 254.537 166.064C252.193 164.812 250.103 168.376 252.452 169.631L252.455 169.633Z" fill="#211715"/>
<path d="M274.372 115.308C276.317 114.002 278.027 112.377 279.429 110.5C279.222 110.032 279.069 109.542 278.972 109.039C278.681 107.651 278.789 106.209 279.282 104.879C277.874 99.2356 272.454 96.2648 269.325 95.7175C263.984 94.7572 258.764 93.0978 253.784 91.8071C253.639 91.7935 253.494 91.8381 253.382 91.9311C253.27 92.024 253.199 92.1576 253.185 92.3027C252.885 95.2456 252.444 98.0615 253.57 100.065C254.31 101.381 254.313 101.587 256.746 103.312C254.197 104.241 251.593 105.01 248.948 105.615C248.643 105.69 248.359 105.834 248.119 106.037C247.879 106.24 247.689 106.496 247.564 106.785C247.44 107.073 247.384 107.387 247.402 107.7C247.419 108.014 247.509 108.32 247.664 108.593C250.37 113.119 256.259 116.801 261.113 117.752C263.375 118.236 265.711 118.269 267.986 117.85C270.261 117.43 272.431 116.567 274.372 115.308Z" fill="#3E92A3"/>
<path d="M270.052 100.369C265.989 99.0737 261.603 99.214 257.631 100.766C254.991 101.766 252.298 102.623 249.566 103.333C248.391 103.503 247.295 104.022 246.419 104.822C246.029 105.248 245.733 105.751 245.55 106.299C245.368 106.846 245.303 107.426 245.36 108.001C245.558 110.115 247.572 112.14 249.039 113.535C250.787 115.194 252.764 116.593 254.909 117.691C258.451 119.568 262.45 120.411 266.45 120.124C271.663 119.638 276.485 117.149 279.898 113.179C281.661 111.199 278.749 108.267 276.977 110.259C274.908 112.82 272.087 114.666 268.911 115.537C265.736 116.407 262.367 116.259 259.281 115.112C255.809 113.907 252.736 111.77 250.396 108.937C250.16 108.641 249.943 108.332 249.735 108.015C249.58 107.778 249.468 107.534 249.449 107.636C249.471 107.52 249.326 107.687 249.495 107.611C250.105 107.404 250.731 107.246 251.365 107.136C253.63 106.567 255.857 105.86 258.035 105.018C261.471 103.469 265.356 103.231 268.955 104.35C271.499 105.145 272.587 101.159 270.053 100.368L270.052 100.369Z" fill="#211715"/>
<path d="M257.091 101.028C256.054 100.377 255.318 99.342 255.042 98.1494C254.885 97.2651 254.852 96.3632 254.945 95.4698C254.916 94.4948 255.03 93.5208 255.282 92.5785L254.751 93.4903L254.97 93.3024L254.059 93.8331L254.332 93.796H253.232C256.1 94.5446 258.946 95.3738 261.813 96.1265C264.433 96.8143 267.16 97.187 269.753 97.9388C271.542 98.4473 273.173 99.402 274.492 100.713C275.811 102.024 276.775 103.649 277.294 105.434C277.978 107.999 281.966 106.911 281.279 104.336C280.518 101.7 279.056 99.3212 277.047 97.4521C275.039 95.583 272.561 94.2943 269.877 93.7237C265.79 92.9048 261.783 91.8464 257.767 90.7384C256.087 90.2748 253.566 89.0284 252.053 90.3811C250.74 91.5552 250.89 94.0428 250.806 95.6836C250.637 97.5955 251.002 99.5167 251.86 101.234C252.635 102.582 253.713 103.733 255.009 104.593C255.483 104.866 256.046 104.941 256.575 104.802C257.104 104.663 257.557 104.322 257.836 103.851C258.1 103.376 258.171 102.817 258.033 102.29C257.895 101.764 257.559 101.311 257.095 101.026L257.091 101.028Z" fill="#211715"/>
<path d="M66.2546 33.3321C61.7741 34.2954 57.6731 36.5473 54.4567 39.8106C50.9462 43.2349 48.7344 47.7713 48.1992 52.6448C48.2025 53.1915 48.4212 53.7149 48.808 54.1015C49.1948 54.4881 49.7184 54.7068 50.2654 54.71C50.8095 54.6977 51.3279 54.4761 51.7128 54.0915C52.0976 53.7068 52.3192 53.1886 52.3316 52.6448C53.1901 44.9581 59.9899 38.8079 67.3528 37.3148C67.6145 37.2427 67.8593 37.1199 68.0735 36.9532C68.2876 36.7865 68.4668 36.5793 68.6008 36.3435C68.7348 36.1076 68.821 35.8476 68.8545 35.5784C68.888 35.3093 68.8682 35.0361 68.7961 34.7746C68.7239 34.5131 68.601 34.2683 68.4343 34.0543C68.2675 33.8403 68.0602 33.6612 67.8243 33.5272C67.5883 33.3933 67.3282 33.3071 67.0589 33.2736C66.7895 33.2401 66.5163 33.26 66.2546 33.3321Z" fill="#211715"/>
<path d="M109.275 51.3136C109.594 51.0453 109.972 50.8551 110.379 50.7584C110.785 50.6616 111.208 50.6608 111.614 50.756C112.025 50.804 112.412 50.9697 112.73 51.2331C112.434 51.0152 113.283 51.9848 112.961 51.4716C113.38 52.1239 113.653 52.8596 113.759 53.6277C113.923 54.6823 113.95 55.7538 113.839 56.8153C113.636 58.612 113.077 60.3502 112.193 61.9277C111.189 63.7792 109.676 65.6957 107.359 65.3952C106.812 65.3979 106.288 65.6164 105.901 66.0031C105.514 66.3898 105.296 66.9135 105.293 67.4604C105.306 68.0039 105.528 68.5215 105.913 68.9059C106.298 69.2904 106.815 69.5122 107.359 69.5256C112.743 70.2236 116.05 64.4122 117.395 60.0628C118.601 56.1596 118.548 50.1065 114.73 47.6097C113.436 46.82 111.921 46.4695 110.412 46.6106C108.902 46.7516 107.478 47.3766 106.353 48.3924C104.364 50.1664 107.295 53.0794 109.275 51.3136Z" fill="#211715"/>
<path d="M50.563 48.3921C49.5326 47.4683 48.2536 46.8671 46.8844 46.6631C45.5153 46.4592 44.1164 46.6615 42.8613 47.2449C41.9789 47.6934 41.2065 48.3312 40.5993 49.1127C39.992 49.8942 39.5651 50.8001 39.3488 51.7656C38.8152 54.0315 38.7572 56.3833 39.1782 58.6727C39.5993 60.9621 40.4903 63.1395 41.7952 65.0676C43.5235 67.6378 46.253 69.9549 49.5609 69.5254C50.1035 69.5083 50.6192 69.2852 51.003 68.9016C51.3869 68.5179 51.6101 68.0025 51.6271 67.4601C51.6239 66.9134 51.4051 66.39 51.0184 66.0034C50.6316 65.6168 50.1079 65.3982 49.5609 65.3949C47.2447 65.6954 45.7302 63.7789 44.726 61.9275C43.8406 60.3506 43.2806 58.6121 43.0793 56.8151C42.9699 55.7535 42.9967 54.6823 43.1588 53.6274C43.2657 52.8594 43.5382 52.1238 43.9574 51.4713C43.6268 51.9969 44.4874 51.0129 44.1888 51.2328C44.4689 50.9973 44.8078 50.8424 45.1692 50.7847C45.5944 50.6647 46.0424 50.6501 46.4744 50.7422C46.9065 50.8344 47.3095 51.0304 47.6487 51.3134C49.6271 53.0781 52.56 50.1661 50.5703 48.3921H50.563Z" fill="#211715"/>
<path d="M73.2149 79.6438C74.9961 80.1178 76.8338 80.3454 78.6769 80.3202C79.9121 80.3227 81.1454 80.2226 82.364 80.0207C82.9495 79.9351 83.5233 79.7823 84.0738 79.5653C84.5862 79.4053 85.0253 79.0691 85.3135 78.6164C85.5893 78.1338 85.6635 77.5621 85.5201 77.0251C85.3707 76.4992 85.0206 76.053 84.5453 75.7826C84.0699 75.5123 83.5073 75.4393 82.9787 75.5795C82.4789 75.777 81.9594 75.9203 81.429 76.007C81.3381 76.0235 81.2472 76.039 81.1553 76.0535C80.9166 76.0906 80.7803 75.9998 81.2204 76.0473C80.9901 76.0505 80.7606 76.0736 80.5344 76.1164C79.9145 76.166 79.2947 76.1867 78.6748 76.1867C78.0818 76.1867 77.4878 76.1691 76.8958 76.1257C76.6417 76.1072 76.3886 76.0844 76.1355 76.0555C76.0528 76.0462 75.6695 76.0008 76.0435 76.0462C76.4175 76.0917 76.0621 76.0462 75.9795 76.0338C75.4164 75.9413 74.8593 75.8158 74.311 75.658C74.0494 75.5859 73.7761 75.566 73.5068 75.5995C73.2375 75.633 72.9774 75.7192 72.7414 75.8531C72.5054 75.9871 72.2981 76.1662 72.1314 76.3802C71.9646 76.5942 71.8417 76.839 71.7696 77.1005C71.6975 77.362 71.6776 77.6352 71.7111 77.9044C71.7446 78.1735 71.8309 78.4335 71.9649 78.6694C72.0989 78.9053 72.2781 79.1124 72.4922 79.2791C72.7063 79.4458 72.9512 79.5686 73.2128 79.6407L73.2149 79.6438Z" fill="#211715"/>
<path d="M77.4603 65.3027C77.7254 66.26 77.9378 67.2311 78.0967 68.2116L78.0223 67.6633C78.0415 67.7959 78.0454 67.9304 78.0336 68.0639L78.107 67.5156C78.0983 67.5772 78.0834 67.6377 78.0626 67.6963L78.2692 67.2027C78.2515 67.2432 78.2301 67.2819 78.2051 67.3184L78.5285 66.9053C78.5005 66.9399 78.4686 66.9711 78.4335 66.9983L78.8519 66.6761C78.7775 66.7212 78.7006 66.7619 78.6215 66.798L79.1143 66.5914C78.9898 66.6447 78.8594 66.6828 78.7258 66.705L79.2754 66.6307C79.1543 66.6456 79.0318 66.6456 78.9108 66.6307L79.4593 66.704C79.3219 66.6854 79.1876 66.6513 79.0461 66.6327C78.7789 66.5466 78.4933 66.5341 78.2196 66.5966C77.9462 66.6085 77.6809 66.693 77.451 66.8413C76.9779 67.1178 76.6341 67.5708 76.4952 68.1006C76.3563 68.6304 76.4337 69.1937 76.7103 69.6665C76.841 69.9001 77.0178 70.1048 77.23 70.2681C77.4422 70.4314 77.6854 70.5499 77.9448 70.6165C78.3085 70.665 78.6618 70.7559 79.0327 70.7724C79.6132 70.7746 80.1855 70.6353 80.7001 70.3666C81.0349 70.2079 81.3308 69.9777 81.567 69.6922C81.8031 69.4067 81.9737 69.073 82.0669 68.7145C82.1897 68.1481 82.1847 67.5615 82.0524 66.9972C81.8943 66.0596 81.6774 65.1313 81.4325 64.2092C81.3608 63.9474 81.2381 63.7023 81.0715 63.4879C80.905 63.2735 80.6977 63.094 80.4617 62.9598C80.2256 62.8255 79.9654 62.7391 79.6959 62.7054C79.4264 62.6717 79.153 62.6915 78.8911 62.7636C78.3711 62.9086 77.927 63.2485 77.6514 63.7125C77.3818 64.1975 77.3079 64.7671 77.4448 65.3048L77.4603 65.3027Z" fill="#211715"/>
<path d="M63.157 61.2022C64.0029 61.3742 64.8623 61.472 65.7252 61.4944C66.5878 61.4889 67.4478 61.4008 68.2935 61.2311C68.6854 61.1232 69.0368 60.9022 69.3036 60.5956C69.5705 60.2891 69.7409 59.9107 69.7936 59.5078C69.8463 59.105 69.779 58.6955 69.6 58.3307C69.421 57.9659 69.1383 57.6619 68.7873 57.4569C68.299 57.1984 67.7335 57.125 67.1953 57.2504C66.9825 57.2924 66.7683 57.3268 66.5527 57.3537L67.1024 57.2804C66.2747 57.3918 65.4359 57.395 64.6074 57.2897L65.156 57.363C64.8554 57.3206 64.5547 57.268 64.2551 57.2164C63.7168 57.0935 63.1523 57.1667 62.6631 57.4229C62.4287 57.5597 62.2235 57.7413 62.0593 57.9574C61.8951 58.1735 61.7752 58.4199 61.7063 58.6823C61.6374 58.9448 61.6209 59.2183 61.6579 59.4871C61.6948 59.7559 61.7843 60.0149 61.9214 60.2491C62.0547 60.4816 62.2329 60.6852 62.4458 60.8482C62.6586 61.0111 62.9018 61.13 63.1611 61.1981L63.157 61.2022Z" fill="#211715"/>
<path d="M92.6341 57.2174C92.3871 57.2597 92.1402 57.3 91.8913 57.3341L92.4409 57.2597C91.6127 57.3868 90.7712 57.4031 89.9387 57.3083L90.4873 57.3816C90.2311 57.3454 89.9707 57.299 89.7207 57.2494C89.1829 57.1159 88.6146 57.1897 88.1287 57.4559C87.6557 57.7324 87.3119 58.1854 87.173 58.7152C87.0341 59.245 87.1114 59.8083 87.388 60.2811C87.6592 60.7491 88.105 61.0904 88.6277 61.2301C89.472 61.42 90.3358 61.5098 91.2011 61.4975C92.0524 61.4514 92.8999 61.3514 93.7384 61.1981C94.2595 61.055 94.7042 60.7146 94.9781 60.2491C95.2545 59.7668 95.3287 59.1948 95.1848 58.6579C95.0409 58.1375 94.7005 57.6932 94.2354 57.4188L93.7426 57.2122C93.3827 57.1142 93.0032 57.1142 92.6434 57.2122L92.6341 57.2174Z" fill="#211715"/>
<path d="M47.3021 65.6887C48.6044 71.022 51.0273 76.0171 54.4098 80.3423C57.9968 84.8189 62.8235 88.1402 68.2874 89.8918C74.0438 91.672 80.6535 92.2152 86.4833 90.5042C91.7828 89.0009 96.5991 86.1438 100.458 82.2144C104.878 77.5966 108.006 71.8992 109.531 65.6928C110.18 63.1113 106.196 62.0147 105.546 64.5941C103.143 74.1354 96.6975 82.5614 87.2447 85.9215C82.3553 87.5954 77.091 87.8481 72.0636 86.6503C67.0362 85.4525 62.4521 82.8533 58.8439 79.1548C55.1431 75.0119 52.5443 70.0051 51.2868 64.5952C50.6018 62.0291 46.6141 63.1185 47.3021 65.6938V65.6887Z" fill="#211715"/>
<path d="M102.276 38.184C97.6272 36.761 92.9928 35.2844 88.3294 33.9203C83.3422 32.3444 78.2593 31.0886 73.1118 30.1606C71.2988 29.8756 69.1696 29.4719 67.3616 30.0347C64.8306 30.8236 65.9153 34.8125 68.4598 34.0184C68.5631 33.9864 68.6664 33.9586 68.7698 33.9369C69.12 33.8615 68.3142 33.9586 68.7088 33.9369C69.0621 33.9203 69.4113 33.9049 69.7667 33.9152C70.4826 33.9377 71.1962 34.0067 71.9031 34.1217C74.1873 34.4738 76.4488 34.9994 78.6864 35.5591C83.9428 36.8715 89.1352 38.4369 94.311 40.0333C96.6003 40.7396 98.8855 41.4604 101.177 42.1615C103.726 42.9422 104.816 38.9605 102.275 38.1788L102.276 38.184Z" fill="#211715"/>
<path d="M98.8151 37.3799C100.928 39.3947 102.362 42.0157 102.92 44.8807C103.481 47.7224 103.186 50.7944 103.269 53.6754C103.345 56.3271 107.478 56.3384 107.401 53.6754C107.304 50.2864 107.567 46.7827 106.834 43.4526C106.051 40.0224 104.279 36.8969 101.738 34.4628C99.8337 32.6041 96.909 35.5222 98.8151 37.383V37.3799Z" fill="#211715"/>
<path d="M58.1914 12.1932C66.2785 3.05257 79.843 2.7273 90.7339 6.24331C100.873 9.51665 109.283 17.3954 112.245 27.7607C114.213 34.5927 114.291 41.8303 112.469 48.7028C111.801 51.2771 115.785 52.3758 116.455 49.8005C119.704 37.2864 117.531 23.6137 109.146 13.5562C105.072 8.83543 99.8717 5.21846 94.0274 3.04018C87.8164 0.610629 81.1336 -0.373873 74.4854 0.161286C67.2537 0.839705 60.1512 3.75577 55.2698 9.27193C53.5135 11.2566 56.4258 14.1881 58.1914 12.1932Z" fill="#211715"/>
<path d="M45.6185 47.9856C44.0118 41.3022 43.9564 34.34 45.4563 27.632C46.2959 23.1068 48.8026 19.0607 52.4814 16.293C52.9424 16.0053 53.2759 15.5524 53.4136 15.027C53.5513 14.5015 53.4828 13.9433 53.2221 13.4667C52.9428 12.9968 52.4897 12.6557 51.9608 12.5172C51.4318 12.3786 50.8695 12.4538 50.3956 12.7264C45.8796 15.9763 42.7257 20.7807 41.5409 26.2152C39.7888 33.7414 39.8207 41.5726 41.6339 49.0842C42.263 51.6657 46.2487 50.5722 45.6185 47.9856Z" fill="#211715"/>
<path d="M324.408 70.8238C324.635 70.6071 324.886 70.4172 325.156 70.2579C325.914 69.8204 326.779 69.6056 327.653 69.6384C328.406 69.614 329.152 69.7943 329.811 70.16C330.47 70.5257 331.017 71.063 331.394 71.7149C332.665 73.9185 332.611 77.9787 331.758 80.492C331.072 82.9773 329.691 85.2155 327.777 86.9437C327.2 87.4319 326.515 87.7767 325.779 87.9501C325.043 88.1234 324.276 88.1204 323.542 87.9412C322.203 92.3003 319.958 96.3276 316.955 99.7594C314.344 102.859 311.082 105.346 307.401 107.044C303.721 108.743 299.711 109.61 295.657 109.585C293.434 109.457 291.224 109.162 289.045 108.703C283.245 107.572 278.01 104.48 274.222 99.9463C271.254 96.4498 269.064 92.363 267.796 87.9567C267.068 88.1224 266.313 88.1169 265.588 87.9408C264.863 87.7646 264.189 87.4226 263.619 86.9417C261.705 85.2134 260.324 82.9753 259.638 80.49C258.785 77.9777 258.731 73.9175 260.003 71.7129C260.38 71.0609 260.928 70.5235 261.586 70.1578C262.245 69.7921 262.991 69.6119 263.744 69.6363C264.336 69.61 264.928 69.7013 265.485 69.9049C266.042 70.1086 266.552 70.4205 266.988 70.8228C266.988 70.8228 262.406 45.873 295.694 45.873C328.983 45.873 324.408 70.8238 324.408 70.8238Z" fill="white"/>
<path d="M261.513 65.5565C261.527 65.6216 261.542 65.6856 261.556 65.7475C261.556 65.7475 262.088 68.0399 262.547 69.8067C262.94 69.7052 263.344 69.6484 263.75 69.6374C264.697 69.5779 265.637 69.8361 266.421 70.371C267.205 70.906 267.788 71.6871 268.077 72.5906C287.024 70.6978 297.247 61.8422 307.995 52.8473C312.19 55.2419 316.765 60.4327 318.561 63.4417C320.367 66.4729 321.932 69.6422 323.238 72.92C323.465 71.9386 324.033 71.0697 324.842 70.4684C325.65 69.8671 326.646 69.5726 327.652 69.6374C328.412 69.6469 329.159 69.8335 329.835 70.1826C331.515 64.3793 330.406 55.9554 329.493 51.5596C329.379 50.971 329.234 50.3824 329.079 49.8042L329.07 49.768C330.927 46.5213 331.478 42.6897 330.611 39.0517C329.771 35.0437 327.752 31.3778 324.814 28.5243C322.504 26.0803 319.549 24.3401 316.291 23.5049C312.738 22.5435 308.189 23.2705 304.688 24.4063C304.393 24.5023 303.118 25.1167 301.686 25.8241C299.644 25.5131 297.576 25.4138 295.514 25.5277C279.687 24.65 264.583 36.5559 261.525 51.5596C260.748 56.1926 260.744 60.9222 261.513 65.5565Z" fill="#85807F"/>
<path d="M305.734 26.184C308.446 24.5473 312.042 24.6351 315.04 25.3186C318.203 26.0414 321.092 27.66 323.359 29.9808C328.02 34.6017 331.02 42.6725 327.292 48.7298C325.894 51.0015 329.468 53.077 330.86 50.8146C335.561 43.1734 332.247 32.9682 326.281 27.0648C323.424 24.1443 319.772 22.1265 315.778 21.2616C311.793 20.4355 307.229 20.4634 303.652 22.6215C301.379 23.9938 303.453 27.5666 305.738 26.1881L305.734 26.184Z" fill="#211715"/>
<path d="M290.561 100C292.307 100.465 294.109 100.688 295.916 100.663C297.127 100.665 298.337 100.567 299.532 100.369C300.104 100.284 300.665 100.134 301.204 99.9225C301.715 99.7614 302.152 99.4253 302.439 98.9736C302.715 98.4911 302.789 97.9192 302.645 97.3823C302.496 96.8566 302.146 96.4106 301.67 96.1402C301.195 95.8699 300.633 95.7968 300.104 95.9367C299.616 96.13 299.108 96.2702 298.589 96.3549C298.501 96.3714 298.411 96.3869 298.322 96.4003C298.115 96.4334 297.892 96.3663 298.397 96.3931C298.172 96.4017 297.948 96.4241 297.726 96.4602C297.122 96.5098 296.517 96.5294 295.913 96.5294C295.332 96.5294 294.751 96.5119 294.172 96.4695C293.924 96.4516 293.676 96.4289 293.429 96.4014C293.345 96.3921 292.968 96.3466 293.345 96.3931C293.723 96.4396 293.372 96.3931 293.289 96.3817C292.738 96.2904 292.194 96.1677 291.657 96.0141C291.129 95.8684 290.564 95.9385 290.088 96.2089C289.611 96.4794 289.261 96.928 289.115 97.4562C288.97 97.9843 289.04 98.5487 289.31 99.0252C289.581 99.5016 290.03 99.8512 290.558 99.9969L290.561 100Z" fill="#211715"/>
<path d="M294.68 85.943C294.938 86.8794 295.145 87.829 295.3 88.7879L295.225 88.2385C295.244 88.3688 295.248 88.5008 295.237 88.6319L295.31 88.0826C295.301 88.1427 295.287 88.2018 295.267 88.2592L295.473 87.7656C295.456 87.8052 295.435 87.8432 295.411 87.8792L295.734 87.461C295.706 87.4951 295.675 87.526 295.641 87.5529L296.059 87.2297C295.987 87.2746 295.912 87.3147 295.834 87.3495L296.328 87.1429C296.206 87.1947 296.078 87.2322 295.948 87.2544L296.496 87.1801C296.378 87.194 296.258 87.194 296.14 87.1801L296.689 87.2534C296.555 87.2348 296.423 87.2018 296.288 87.1842C296.021 87.0975 295.736 87.0847 295.462 87.1471C295.189 87.1589 294.924 87.2434 294.694 87.3918C294.46 87.5286 294.255 87.7102 294.091 87.9264C293.926 88.1425 293.806 88.3888 293.738 88.6513C293.669 88.9137 293.652 89.1872 293.689 89.456C293.726 89.7249 293.816 89.9838 293.953 90.218L294.276 90.6311C294.528 90.8845 294.842 91.0677 295.187 91.1628C295.548 91.2114 295.897 91.3012 296.264 91.3167C296.839 91.3185 297.406 91.1803 297.917 90.914C298.249 90.7557 298.543 90.5265 298.777 90.2425C299.012 89.9585 299.181 89.6265 299.273 89.2701C299.396 88.7083 299.391 88.1261 299.26 87.5663C299.105 86.6504 298.893 85.7417 298.657 84.8423C298.586 84.5804 298.463 84.3351 298.296 84.1207C298.13 83.9062 297.922 83.7267 297.686 83.5924C297.45 83.4581 297.19 83.3717 296.92 83.3381C296.65 83.3045 296.377 83.3244 296.115 83.3967C295.595 83.5415 295.151 83.8814 294.875 84.3456C294.606 84.8306 294.532 85.4002 294.669 85.9379L294.68 85.943Z" fill="#211715"/>
<path d="M280.726 81.9654C281.557 82.1349 282.402 82.2313 283.251 82.2535C284.098 82.2477 284.944 82.1609 285.775 81.9943C286.166 81.8863 286.518 81.6651 286.784 81.3585C287.051 81.0519 287.222 80.6735 287.274 80.2706C287.327 79.8678 287.259 79.4584 287.08 79.0936C286.901 78.7289 286.618 78.425 286.267 78.2201C285.779 77.9615 285.214 77.8881 284.675 78.0136C284.469 78.0549 284.262 78.091 284.047 78.1169L284.597 78.0425C283.787 78.152 282.967 78.1551 282.157 78.0518L282.706 78.1251C282.411 78.0838 282.119 78.0322 281.825 77.9816C281.558 77.8959 281.273 77.883 280.999 77.9444C280.726 77.9572 280.461 78.042 280.231 78.1902C279.997 78.327 279.792 78.5086 279.628 78.7246C279.464 78.9406 279.344 79.1869 279.275 79.4492C279.206 79.7116 279.189 79.9849 279.226 80.2536C279.263 80.5223 279.352 80.7812 279.489 81.0154C279.623 81.2478 279.801 81.4515 280.014 81.6144C280.227 81.7773 280.47 81.8963 280.729 81.9643L280.726 81.9654Z" fill="#211715"/>
<path d="M309.553 77.9797C309.311 78.021 309.069 78.0603 308.829 78.0933L309.379 78.02C308.569 78.1433 307.746 78.159 306.932 78.0665L307.481 78.1398C307.23 78.1047 306.98 78.0592 306.731 78.0107C306.193 77.8772 305.625 77.951 305.139 78.2172C304.905 78.354 304.7 78.5356 304.536 78.7517C304.372 78.9677 304.252 79.2139 304.183 79.4763C304.114 79.7386 304.098 80.012 304.134 80.2807C304.171 80.5494 304.261 80.8083 304.397 81.0424C304.669 81.5099 305.115 81.8511 305.637 81.9914C306.467 82.1781 307.316 82.2661 308.166 82.2537C309.003 82.2092 309.835 82.1112 310.659 81.9604C311.178 81.8162 311.621 81.4759 311.894 81.0115C312.031 80.7772 312.12 80.5183 312.157 80.2495C312.194 79.9806 312.178 79.7072 312.109 79.4447C312.04 79.1822 311.92 78.9359 311.756 78.7198C311.591 78.5037 311.386 78.322 311.152 78.1852L310.659 77.9787C310.299 77.8795 309.92 77.8795 309.56 77.9787L309.553 77.9797Z" fill="#211715"/>
<path d="M265.189 86.3254C266.462 91.5407 268.83 96.4258 272.135 100.657C275.638 105.032 280.348 108.282 285.681 110.006C291.332 111.772 297.841 112.304 303.566 110.626C308.741 109.157 313.445 106.37 317.218 102.537C321.562 98.0098 324.636 92.4182 326.13 86.3254C326.78 83.7439 322.795 82.6473 322.145 85.2278C319.803 94.5212 313.534 102.748 304.327 106.036C299.553 107.68 294.41 107.936 289.496 106.773C284.583 105.61 280.101 103.077 276.571 99.4673C272.948 95.4171 270.404 90.5199 269.173 85.2278C268.489 82.6617 264.501 83.7501 265.189 86.3254Z" fill="#211715"/>
<path d="M264.543 69.2546C263.643 66.088 263.13 62.8238 263.016 59.5337C262.856 55.7185 263.385 51.9056 264.579 48.2784C267.219 41.2034 272.294 35.2996 278.894 31.6256C282.256 29.6999 285.946 28.4122 289.777 27.8277C291.681 27.6 293.601 27.5206 295.518 27.5902C298.016 27.5192 300.515 27.7047 302.975 28.1437C307.225 29.0626 311.248 30.8205 314.809 33.3143C318.369 35.8081 321.396 38.9876 323.711 42.6662C326.115 46.7039 327.629 51.2079 328.153 55.8773C328.773 60.3711 329.074 65.2213 327.843 69.6367C327.13 72.2017 331.116 73.2962 331.828 70.7343C332.91 66.1689 333.104 61.438 332.399 56.7994C331.992 52.2121 330.81 47.7269 328.903 43.5346C324.622 34.9884 317.175 28.4489 308.144 25.3071C303.109 23.6926 297.811 23.0615 292.537 23.4484C288.239 23.6605 284.018 24.6675 280.088 26.4182C272.219 29.8662 265.825 35.9882 262.04 43.6988C259.999 48.0533 258.923 52.7972 258.885 57.6058C258.843 61.9133 259.406 66.2054 260.558 70.3564C261.227 72.9265 265.214 71.8372 264.542 69.2587L264.543 69.2546Z" fill="#211715"/>
<path d="M307.937 55.2343C314.094 59.3698 318.301 65.9929 320.993 72.7885C321.152 73.3084 321.503 73.7478 321.976 74.0167C322.448 74.2855 323.006 74.3633 323.534 74.2341C324.061 74.0862 324.509 73.7366 324.78 73.261C325.05 72.7855 325.123 72.2224 324.981 71.6939C321.865 63.8307 317.157 56.4641 310.026 51.6749C309.552 51.3984 308.989 51.3212 308.458 51.4601C307.928 51.5991 307.475 51.9428 307.198 52.4158C306.922 52.8888 306.845 53.4522 306.984 53.9821C307.123 54.512 307.467 54.965 307.94 55.2415L307.937 55.2343Z" fill="#211715"/>
<path d="M305.899 51.9146C301.254 56.012 296.285 59.729 291.042 63.0295C285.023 66.5867 278.387 68.9803 271.482 70.0853C270.955 70.2336 270.508 70.5834 270.237 71.0588C269.967 71.5342 269.894 72.097 270.036 72.6255C270.192 73.1471 270.543 73.5885 271.016 73.8577C271.49 74.127 272.049 74.2034 272.577 74.0711C279.833 72.8849 286.803 70.3505 293.125 66.5992C298.664 63.1056 303.913 59.1728 308.821 54.8389C310.862 53.13 307.926 50.2211 305.899 51.9177V51.9146Z" fill="#211715"/>
<path d="M325.87 72.2815C326.176 72.0234 326.538 71.8406 326.928 71.7481C327.317 71.6556 327.723 71.6558 328.113 71.7487C328.511 71.7905 328.887 71.9513 329.192 72.2102C328.882 71.982 329.729 72.9537 329.399 72.4281C330.225 74.0287 330.524 75.8498 330.251 77.6304C330.05 79.3783 329.507 81.0696 328.652 82.6075C327.677 84.4053 326.213 86.2681 323.963 85.9759C323.416 85.9786 322.892 86.197 322.505 86.5837C322.118 86.9705 321.899 87.4942 321.896 88.0411C321.91 88.5845 322.132 89.1019 322.517 89.4863C322.901 89.8707 323.419 90.0927 323.963 90.1063C329.249 90.7919 332.5 85.0909 333.822 80.819C335.008 76.9809 334.947 71.0434 331.194 68.5889C329.92 67.8117 328.428 67.467 326.942 67.6064C325.456 67.7458 324.055 68.3617 322.947 69.3623C320.958 71.1353 323.889 74.0472 325.87 72.2815Z" fill="#211715"/>
<path d="M268.455 69.3634C267.44 68.4531 266.18 67.8608 264.831 67.6599C263.482 67.4591 262.104 67.6586 260.868 68.2337C259.999 68.6746 259.238 69.3021 258.64 70.0711C258.042 70.8401 257.622 71.7317 257.409 72.6822C256.885 74.9037 256.828 77.2096 257.241 79.4545C257.653 81.6993 258.527 83.8343 259.806 85.7249C261.504 88.2507 264.188 90.5286 267.439 90.1073C267.982 90.0902 268.498 89.8672 268.881 89.4835C269.265 89.0999 269.488 88.5844 269.506 88.0421C269.503 87.4953 269.284 86.9717 268.897 86.5851C268.51 86.1984 267.986 85.9799 267.439 85.9769C265.19 86.2691 263.726 84.4073 262.751 82.6086C261.893 81.072 261.348 79.3807 261.148 77.6324C260.877 75.8518 261.175 74.031 262.001 72.4302C261.663 72.9703 262.529 71.979 262.208 72.2123C262.477 71.9817 262.806 71.8317 263.156 71.7797C263.563 71.6625 263.993 71.6471 264.407 71.735C264.821 71.8229 265.208 72.0113 265.532 72.2836C267.511 74.0493 270.444 71.1374 268.454 69.3634H268.455Z" fill="#211715"/>
</g>
<defs>
<clipPath id="clip0_3160_25741">
<rect width="364" height="444" fill="white"/>
</clipPath>
</defs>
</svg>
